<?xml version="1.0" encoding="utf-8"?>
<!-- Generator: Adobe Illustrator 27.7.0, SVG Export Plug-In . SVG Version: 6.00 Build 0)  -->
<svg version="1.1" id="Calque_1" xmlns="http://www.w3.org/2000/svg" xmlns:xlink="http://www.w3.org/1999/xlink" x="0px" y="0px"
	 viewBox="0 0 595.28 841.89" style="enable-background:new 0 0 595.28 841.89;" xml:space="preserve">
<style type="text/css">
	.st0{fill:#DDB7A5;}
	.st1{fill:#C7967C;}
	.st2{fill:#373437;}
	.st3{fill:#CFD8D3;}
	.st4{fill:#1B181B;}
	.st5{fill:#1A191B;}
	.st6{fill:#D9AE9A;}
	.st7{fill:#5E282F;}
	.st8{fill:#1A4258;}
	.st9{fill:#85133B;}
	.st10{opacity:0.05;}
	.st11{fill:#1D1D1C;}
	.st12{fill:#8AC292;}
	.st13{clip-path:url(#SVGID_00000063621378659968258880000016253007206285400477_);}
	.st14{clip-path:url(#SVGID_00000162350228936602122620000007221227841168003226_);}
	.st15{fill:#FFFFFF;}
	.st16{clip-path:url(#SVGID_00000014593770875180916120000009919683128033415810_);}
	.st17{fill:#0A1C29;}
	.st18{fill:#8BC293;}
	.st19{fill:#6BB275;}
	.st20{opacity:0.25;}
</style>
<g>
	<g>
		<path class="st0" d="M431.53,188.99c-5.43-9.84-15.67-35.27-19.37-44.61c-0.81-2.03-0.03-4.34,1.83-5.48h0
			c2.17-1.33,5-0.61,6.26,1.6c3.13,5.51,8.67,15.14,11.28,19.01l17.53-40.69l10.44-18.97c1.28-2.32,4.22-3.12,6.5-1.76v0
			c2.02,1.2,2.83,3.71,1.91,5.86l-7.9,18.47l-5.48,16.01l1.68-1.33c1.84-1.46,4.39-1.62,6.39-0.4l0.04,0.03
			c1.75,1.06,2.78,2.98,2.7,5.02l-0.04,0.94l2.04-1.15c1.94-1.09,4.34-0.93,6.12,0.4h0c1.79,1.35,2.61,3.63,2.09,5.81l-0.28,1.15
			l2.05-0.46c1.88-0.42,3.84,0.14,5.21,1.51l0.41,0.41c1.75,1.75,2.15,4.45,0.97,6.64l-6.94,12.85c-1.18,2.19-3.71,3.29-6.12,2.66
			l0,0c0,0-6.29,18.53-14.24,21.51v0l-2.73,3.94l-17.78,9.3L431.53,188.99z"/>
	</g>
	<g>
		<path class="st1" d="M444.75,189.91c-0.8,0-1.49-0.58-1.62-1.39c-0.13-0.9,0.48-1.73,1.38-1.86c6.26-0.95,10.27-9.77,10.52-17.74
			c0.03-0.91,0.76-1.61,1.69-1.59c0.9,0.03,1.61,0.78,1.58,1.69c-0.29,9.19-5.05,19.63-13.31,20.88
			C444.92,189.91,444.83,189.91,444.75,189.91z"/>
	</g>
	<g>
		<path class="st1" d="M464.12,169.62c-0.49,0-1.01-0.06-1.56-0.2c-2.03-0.48-3.47-1.56-4.29-3.19c-1.75-3.51-0.59-9.38,3.89-19.64
			c0.36-0.83,1.33-1.21,2.16-0.85c0.83,0.36,1.21,1.33,0.85,2.16c-3.83,8.78-5.17,14.45-3.96,16.87c0.25,0.51,0.72,1.14,2.11,1.47
			c2.21,0.52,3.22-1.25,6.28-8.45c0.86-2.02,1.84-4.33,3.03-6.89c0.38-0.81,1.36-1.17,2.18-0.79c0.82,0.38,1.17,1.36,0.79,2.18
			c-1.18,2.51-2.14,4.78-2.98,6.78C469.97,165.28,468.13,169.62,464.12,169.62z"/>
	</g>
	<g>
		<path class="st1" d="M472.06,172.36c-1.13,0-2.33-0.29-3.33-0.95c-1.22-0.8-3.08-2.79-1.83-7.07c0.25-0.87,1.16-1.37,2.03-1.11
			c0.87,0.25,1.37,1.16,1.11,2.03c-0.33,1.14-0.53,2.66,0.4,3.35c0.86,0.64,2.29,0.51,2.65,0.28c0.7-0.58,1.72-0.47,2.29,0.23
			c0.58,0.7,0.47,1.74-0.23,2.31C474.45,172.01,473.3,172.36,472.06,172.36z"/>
	</g>
	<g>
		<path class="st1" d="M454.12,165.78c-0.75,0-1.49-0.13-2.16-0.37c-2.56-0.92-4.83-3.68-3.78-7.56l4.39-12.75
			c0.29-0.86,1.23-1.32,2.08-1.02c0.86,0.29,1.31,1.23,1.02,2.08l-4.35,12.65c-0.52,1.92,0.62,3.11,1.76,3.52
			c1.23,0.44,3.01,0.2,3.98-1.95c0.64-1.41,2.04-5.31,3.27-8.76c0.93-2.61,1.83-5.09,2.38-6.49c0.33-0.84,1.28-1.26,2.13-0.92
			c0.84,0.33,1.25,1.28,0.92,2.12c-0.54,1.38-1.42,3.82-2.34,6.39c-1.32,3.67-2.68,7.47-3.37,9
			C458.72,164.63,456.35,165.78,454.12,165.78z"/>
	</g>
	<g>
		<path class="st2" d="M220.89,747.28c-0.64,13.93,0.13,22.05-0.01,27.22c-0.07,2.48-2.28,3.79-2.28,3.79l2.19,12.18
			c0,0.85-0.7,1.53-1.55,1.5l-84.08,0.08c-0.81-0.02-1.46-0.69-1.46-1.5v-11.16c0-0.76,0.57-1.41,1.33-1.5l2.69-0.32
			c0,0-3.21-1.77-4.02-4.73c-4.93-17.91,19.51-13.13,30.3-23.85c5.78-5.74,11.28-11.33,14.42-15.21
			c8.99-11.12,21.78-15.15,21.78-15.15L220.89,747.28z"/>
	</g>
	<g>
		<path class="st3" d="M221.98,708.46l-1.09,38.82c0,0-12.53-17.85-30.63-19.41c-7.16-0.62-11.84,5.92-11.84,5.92l1.66-32.19
			L221.98,708.46z"/>
	</g>
	<g>
		<path class="st4" d="M220.8,790.48c0,0.85-0.7,1.53-1.55,1.5l-84.08,0.08c-0.81-0.02-1.46-0.69-1.46-1.5v-11.16
			c0-0.76,0.57-1.41,1.33-1.5l2.69-0.32c0,0-0.11-0.08-0.27-0.19l81.14,0.83l1.08,1.01c0.71,0.66,1.11,1.58,1.11,2.55V790.48z"/>
	</g>
	<g>
		<path class="st4" d="M183.82,758.35c-0.38,0-0.77-0.11-1.11-0.34l-13.41-9.09c-0.76-0.52-1.07-1.5-0.73-2.36
			c0.34-0.86,1.21-1.36,2.14-1.24l26.82,4.02c1.08,0.16,1.83,1.17,1.66,2.25c-0.16,1.08-1.17,1.83-2.25,1.67l-18.21-2.73l6.21,4.21
			c0.91,0.61,1.14,1.84,0.53,2.75C185.07,758.05,184.45,758.35,183.82,758.35z"/>
	</g>
	<g>
		<path class="st3" d="M311.54,701.6l-2.05,30.14c0,0-28.4,21.16-29.18,20.22c-0.77-0.94-14.74-22.26-14.74-22.26l2.1-36.59
			L311.54,701.6z"/>
	</g>
	<g>
		<path class="st5" d="M381.71,780.38c1.65,1.24,1.48,2.27,1.48,5.57s0.79,5.66-3.3,5.66s-72.31,0-78.2,0
			c-2.4,0-5.67-6.17-6.22-5.62c-0.55,0.55-1.71,5.62-4.63,5.62s-26.16,0-28.67,0s-1.71-9.54-1.71-13.16c0-3.62,1.12-4.78,1.12-4.78
			l56.92-1.86L381.71,780.38z"/>
	</g>
	<g>
		<path class="st6" d="M311.92,69.02c3.25,1.76,6.02,20.14-3.13,19.77C299.63,88.43,301.79,63.55,311.92,69.02z"/>
	</g>
	<g>
		<path class="st7" d="M292.39,38.01c5.59-4.82-3.16-21.6-31.63-16.88s-53.18,17.63-47.56,52.11c6.03,36.99,22.52,47.55,27.88,53.12
			c9.98,10.38,36.61-0.89,36.61-0.89L292.39,38.01z"/>
	</g>
	<g>
		<path class="st0" d="M236.22,111.17c-5.18,3.24-17.34-14.34-14.78-21.92c1.62-4.8,5.64-3.2,8.37-1.39
			c1.49,0.99,4.24,2.99,5.26,4.46c1.86,2.67,7.77,6.01,9.72-2.35c3.29-14.13-5.11-20.3-5.18-31.78
			c-0.05-8.35,12.97-14.3,27.91-14.16c17.61,0.17,24.88-6.03,24.88-6.03c11.8,14.25,12.75,23.14,12.51,27.47
			c-0.24,4.33,2.66,10.28,5.92,17.13s2.05,16.58,2.86,24.31s5.32,14.84,4.34,26.21s-12.98,13.38-19.22,14.86
			C284.62,151.35,251.02,156.44,236.22,111.17z"/>
	</g>
	<g>
		<path class="st1" d="M289.17,104.95c-0.76,0-1.49-0.44-1.81-1.18c-0.44-1,0.01-2.17,1.02-2.61c6.7-2.95,6.29-4.03,6.11-4.5
			c-2-5.3-6.93-18.08-10.47-25.12c-3.91-7.78-2.27-10.42,0.67-13.57c0.29-0.31,0.6-0.64,0.91-0.99c0.72-0.82,1.97-0.91,2.79-0.19
			c0.82,0.72,0.91,1.97,0.19,2.79c-0.34,0.39-0.68,0.75-1,1.09c-2.05,2.19-2.99,3.19-0.03,9.08c3.62,7.21,8.61,20.14,10.58,25.37
			c1.66,4.37-1.75,6.84-8.17,9.66C289.7,104.9,289.43,104.95,289.17,104.95z"/>
	</g>
	<g>
		
			<ellipse transform="matrix(0.9865 -0.1635 0.1635 0.9865 -9.6082 44.4983)" class="st8" cx="265.58" cy="80.63" rx="4.84" ry="6.55"/>
	</g>
	<g>
		<circle class="st0" cx="262.34" cy="80.07" r="2.95"/>
	</g>
	<g>
		
			<ellipse transform="matrix(0.9865 -0.1635 0.1635 0.9865 -7.8917 49.3776)" class="st8" cx="296.09" cy="72.64" rx="4.84" ry="6.55"/>
	</g>
	<g>
		<circle class="st0" cx="292.57" cy="71.88" r="3.19"/>
	</g>
	<g>
		<path class="st7" d="M268.14,61.23c-6.63,0.1-13.25,3.17-15.99,5.97c-0.68,0.7-0.84,1.74-0.41,2.61l0,0
			c0.54,1.07,1.81,1.54,2.9,1.06c2.94-1.28,8.79-3.49,14.03-3.53c1.41-0.01,2.43-1.38,2.12-2.75l-0.31-1.36
			C270.19,61.93,269.23,61.21,268.14,61.23z"/>
	</g>
	<g>
		<path class="st7" d="M304.25,59.05c-0.32,0.41-0.85,0.64-1.4,0.47c-5.22-1.59-10.58-0.5-13.73,0.12
			c-1.18,0.23-2.31-0.52-2.58-1.69c-0.2-0.91,0.14-1.88,0.91-2.4c3.08-2.08,8.58-3.5,14.92-2.03
			C303.27,55.59,303.86,57.43,304.25,59.05z"/>
	</g>
	<g>
		<path class="st7" d="M297.04,112.85c-6.36-2.47-17.41-4.44-25.61-3.64c-2.31,0.23-4.01,2.27-3.8,4.58
			c1.53,16.35,25.04,25.25,31.82,4.3C300.14,115.98,299.12,113.66,297.04,112.85z"/>
	</g>
	<g>
		<path class="st9" d="M288.76,126.98c0.39,0.83,0.73,1.67,1.05,2.51c-9.32,3.48-21.1-4.29-22.17-15.7
			c-0.03-0.36-0.01-0.71,0.05-1.05C277.18,114.53,284.39,117.76,288.76,126.98z"/>
	</g>
	<g>
		<path class="st0" d="M233.04,107.71l-5.54,61.17l-21.36,4.48l26.63,26.63l76.2-8.44c0,0,6.33-10.81,5.27-10.55
			c-1.05,0.26-28.48-7.38-28.48-8.17c0-0.79-2.64-32.17-2.64-32.17L233.04,107.71z"/>
	</g>
	<g class="st10">
		<ellipse class="st11" cx="297.64" cy="791.62" rx="197.78" ry="29.98"/>
	</g>
	<g>
		<path class="st12" d="M294.66,175.88c11.57,3.27,0.46,11.01-35.27,11.01c-35.72,0-49.76-14.27-40.82-16.14
			c-27.19,5.38-45.58,9.04-53.64,34.75s-18.42,66.37-18.8,101.88c-0.38,35.51,6.91,57.59,39.91,37.53
			c-1.15,7.96-15.42,22.89-0.61,29.62l110.34,21.39c0,0,31.49-16.99,39.17-21.39c7.68-4.4,7.29-14.83,4.61-23.43
			c-2.69-8.6-6.14-53.85-1.92-73.44c18.8,31.45,29.17,49.87,52.19,47.19c23.03-2.69,28.01-32.11,39.14-49.44
			c11.13-17.33,28.01-45.77,21.87-65.32c3.84-4.21,4.37-8.74,3.05-12.16c-6.58,0.79-18.41-3.68-22.36-8.94
			c-2.63-0.79-2.63,4.47-6.58,9.73c-8.15,0.26-19.2,6.71-24.46,24.01s-12.89,36.05-15.52,37.06c-2.37-2.41-4.47-3.64-6.84,0
			c-9.47-19.51-28.8-70.51-48.92-76.06C308.02,177.89,294.66,175.88,294.66,175.88z"/>
	</g>
	<g>
		<defs>
			<path id="SVGID_1_" d="M294.66,175.88c11.57,3.27,0.46,11.01-35.27,11.01c-35.72,0-49.76-14.27-40.82-16.14
				c-27.19,5.38-45.58,9.04-53.64,34.75s-18.42,66.37-18.8,101.88c-0.38,35.51,6.91,57.59,39.91,37.53
				c-1.15,7.96-15.42,22.89-0.61,29.62l110.34,21.39c0,0,31.49-16.99,39.17-21.39c7.68-4.4,7.29-14.83,4.61-23.43
				c-2.69-8.6-6.14-53.85-1.92-73.44c18.8,31.45,29.17,49.87,52.19,47.19c23.03-2.69,28.01-32.11,39.14-49.44
				c11.13-17.33,28.01-45.77,21.87-65.32c3.84-4.21,4.37-8.74,3.05-12.16c-6.58,0.79-18.41-3.68-22.36-8.94
				c-2.63-0.79-2.63,4.47-6.58,9.73c-8.15,0.26-19.2,6.71-24.46,24.01s-12.89,36.05-15.52,37.06c-2.37-2.41-4.47-3.64-6.84,0
				c-9.47-19.51-28.8-70.51-48.92-76.06C308.02,177.89,294.66,175.88,294.66,175.88z"/>
		</defs>
		<clipPath id="SVGID_00000158724113792609565440000017528117628150138530_">
			<use xlink:href="#SVGID_1_"  style="overflow:visible;"/>
		</clipPath>
		<g style="clip-path:url(#SVGID_00000158724113792609565440000017528117628150138530_);">
			<defs>
				<path id="SVGID_00000078033872015058350780000013842906732128804027_" d="M188.2,223.92c2.54,6.15-0.38,13.19-6.53,15.73
					l-13.43,5.55c-6.15,2.54-13.19-0.38-15.73-6.53l-5.49-13.28c-2.54-6.15,0.38-13.19,6.53-15.73l13.43-5.55
					c6.15-2.54,13.19,0.38,15.73,6.53L188.2,223.92z"/>
			</defs>
			<clipPath id="SVGID_00000087414197861092098670000007914662596026806954_">
				<use xlink:href="#SVGID_00000078033872015058350780000013842906732128804027_"  style="overflow:visible;"/>
			</clipPath>
			<g style="clip-path:url(#SVGID_00000087414197861092098670000007914662596026806954_);">
				<path class="st15" d="M167.05,203.33l-14.03,5.8c-4.72,1.95-7.76,6.67-7.6,11.76c1.87,2.98,4.34,5.76,7.32,8.28
					c0.29-1.2,0.61-2.33,0.96-3.44c3.14-9.88,9.1-18.27,16.44-23.23C169.08,202.64,168.05,202.91,167.05,203.33z"/>
			</g>
			<g style="clip-path:url(#SVGID_00000087414197861092098670000007914662596026806954_);">
				<path class="st15" d="M171.31,202.41c-2.98,1.87-5.76,4.33-8.28,7.32c1.21,0.29,2.34,0.61,3.45,0.96
					c9.88,3.14,18.27,9.1,23.23,16.44c-0.14-1.06-0.42-2.1-0.83-3.09l-5.8-14.03c-1.91-4.62-6.37-7.6-11.37-7.6
					C171.58,202.4,171.45,202.4,171.31,202.41z"/>
			</g>
			<g style="clip-path:url(#SVGID_00000087414197861092098670000007914662596026806954_);">
				<path class="st15" d="M182.46,220.01c-0.29,1.2-0.61,2.33-0.96,3.44c-3.14,9.88-9.1,18.27-16.44,23.23
					c1.06-0.14,2.1-0.42,3.1-0.83l14.03-5.8c4.72-1.95,7.76-6.67,7.6-11.76C187.91,225.31,185.45,222.53,182.46,220.01z"/>
			</g>
			<g style="clip-path:url(#SVGID_00000087414197861092098670000007914662596026806954_);">
				<path class="st15" d="M172.18,239.44c-1.21-0.29-2.34-0.61-3.45-0.96c-9.88-3.14-18.27-9.1-23.23-16.44
					c0.14,1.06,0.42,2.1,0.83,3.09l5.8,14.03c1.96,4.74,6.62,7.78,11.76,7.6C166.87,244.89,169.65,242.43,172.18,239.44z"/>
			</g>
		</g>
		<g style="clip-path:url(#SVGID_00000158724113792609565440000017528117628150138530_);">
			<defs>
				<path id="SVGID_00000152973356143029125820000016669046470051172287_" d="M176.54,224.33c1.1,2.66-0.17,5.72-2.83,6.82
					l-5.82,2.41c-2.66,1.1-5.72-0.17-6.82-2.83l-2.38-5.76c-1.1-2.66,0.17-5.72,2.83-6.82l5.82-2.41c2.66-1.1,5.72,0.17,6.82,2.83
					L176.54,224.33z"/>
			</defs>
			<clipPath id="SVGID_00000033331086453287746130000000621460280031279544_">
				<use xlink:href="#SVGID_00000152973356143029125820000016669046470051172287_"  style="overflow:visible;"/>
			</clipPath>
			<g style="clip-path:url(#SVGID_00000033331086453287746130000000621460280031279544_);">
				<path class="st15" d="M167.37,215.41l-6.08,2.51c-2.04,0.84-3.36,2.89-3.29,5.1c0.81,1.29,1.88,2.5,3.17,3.59
					c0.13-0.52,0.26-1.01,0.42-1.49c1.36-4.28,3.95-7.92,7.13-10.07C168.25,215.11,167.8,215.23,167.37,215.41z"/>
			</g>
			<g style="clip-path:url(#SVGID_00000033331086453287746130000000621460280031279544_);">
				<path class="st15" d="M169.22,215.01c-1.29,0.81-2.5,1.88-3.59,3.17c0.52,0.13,1.01,0.26,1.49,0.42
					c4.28,1.36,7.92,3.95,10.07,7.13c-0.06-0.46-0.18-0.91-0.36-1.34l-2.51-6.08c-0.83-2-2.76-3.3-4.93-3.3
					C169.33,215.01,169.27,215.01,169.22,215.01z"/>
			</g>
			<g style="clip-path:url(#SVGID_00000033331086453287746130000000621460280031279544_);">
				<path class="st15" d="M174.05,222.64c-0.13,0.52-0.26,1.01-0.42,1.49c-1.36,4.28-3.95,7.92-7.13,10.07
					c0.46-0.06,0.91-0.18,1.34-0.36l6.08-2.51c2.04-0.84,3.36-2.89,3.29-5.1C176.41,224.94,175.34,223.73,174.05,222.64z"/>
			</g>
			<g style="clip-path:url(#SVGID_00000033331086453287746130000000621460280031279544_);">
				<path class="st15" d="M169.59,231.06c-0.52-0.13-1.01-0.26-1.49-0.42c-4.28-1.36-7.92-3.95-10.07-7.13
					c0.06,0.46,0.18,0.91,0.36,1.34l2.51,6.08c0.85,2.05,2.87,3.37,5.1,3.29C167.29,233.43,168.5,232.36,169.59,231.06z"/>
			</g>
		</g>
	</g>
	<g>
		<path class="st8" d="M263.68,457.42l5.71,96.36c0,0-7.54,3.88-5.71,6.56c1.83,2.68,5.71,4.54,5.71,4.54l-3,120.97
			c0,0-7.49-1.49-5.68,8.05s-0.89,14.62-0.28,17s8.36,2.09,28.05,3.88s27.15,2.77,27.15,2.77c4.77-0.68,4.47-3.36,4.77-11.72
			c0.3-8.35,4.77-14.84-2.68-17.41c6.86-115.34,16.2-231.16,17.22-313.89L263.68,457.42z"/>
	</g>
	<g>
		<path class="st8" d="M329.25,236c-23.29-6.87-94.17-5.02-117.46-2.35l-6.43,140.89h-19.94c0,0-2.16,155.32-2.79,191.59
			c-0.71,41.19-5.18,121.38-5.18,121.38s-7.64,1.15-6.49,6.87c1.15,5.73-0.43,14.51,1.09,18.33c1.53,3.82,15.27,2.34,25.97,4.25
			c10.69,1.91,26.35,3,32.46,1.86c3.57-0.67,2.85-7.2,2.97-13.03c0.09-4.14,1.44-7.75,1.29-9.5c-0.38-4.2-8.02-5.73-8.02-5.73
			s10.15-101.9,10.91-116.8c0.76-14.89,30.24-117.23,30.24-117.23s73.04,46.78,67.07-82l-7.83-2.77L329.25,236z"/>
	</g>
	<g>
		<path class="st17" d="M309.32,374.35c-0.02,0-0.04,0-0.07,0c-0.4-0.01-40.46-1.28-97.11,0c-1.09-0.01-2-0.84-2.02-1.93
			c-0.02-1.09,0.84-2,1.93-2.02c56.76-1.27,96.93-0.01,97.33,0c1.09,0.03,1.95,0.95,1.91,2.04
			C311.27,373.51,310.39,374.35,309.32,374.35z"/>
	</g>
	<g>
		<path class="st17" d="M264.77,469.37l-4.64-67.13c-0.08-1.09,0.75-2.03,1.84-2.11c1.1-0.04,2.03,0.75,2.11,1.84l3.72,53.89
			c3.16-5.98,6.2-12.44,6.25-14.47c0.12-4.38,0-38.93,0-39.28c0-1.09,0.88-1.98,1.97-1.99c0,0,0.01,0,0.01,0
			c1.09,0,1.97,0.88,1.98,1.97c0,1.42,0.12,34.96,0,39.4c-0.13,4.72-8.35,19.32-10,22.2L264.77,469.37z"/>
	</g>
	<g>
		<path class="st17" d="M219.15,572.94c-0.13,0-0.26-0.01-0.39-0.04l-20.2-4.05c-0.9-0.18-1.56-0.96-1.59-1.88
			c-0.03-0.92,0.59-1.74,1.48-1.97l31.1-8.11c1.06-0.27,2.14,0.36,2.41,1.42c0.28,1.06-0.36,2.14-1.42,2.41l-22.79,5.95l11.79,2.37
			c1.07,0.22,1.77,1.26,1.55,2.33C220.9,572.29,220.08,572.94,219.15,572.94z"/>
	</g>
	<g>
		<path class="st17" d="M227.67,697.72c-5.63,0-13.72-1.83-22.22-3.74c-8.74-1.97-17.79-4.02-22.47-3.49
			c-1.1,0.13-2.07-0.66-2.19-1.75c-0.12-1.09,0.66-2.06,1.75-2.19c5.34-0.6,14.3,1.42,23.78,3.56c9.16,2.07,18.64,4.21,23.45,3.52
			c1.09-0.14,2.08,0.6,2.24,1.68c0.15,1.08-0.6,2.08-1.68,2.24C229.52,697.67,228.63,697.72,227.67,697.72z"/>
	</g>
	<g>
		<path class="st15" d="M236.28,268.65l-5.15-0.04l-10.08,23.22l5.42,0.04l2.51-6.04l9.1,0.07l2.48,6.08l5.63,0.05L236.28,268.65z
			 M230.92,281.19l2.64-6.33l2.61,6.38L230.92,281.19z"/>
	</g>
	<g>
		<path class="st15" d="M252.78,292.09l-5.32-0.04l0.19-23.42l11.01,0.09c6.05,0.05,9.78,2.75,9.74,7.54l-0.01,1.2
			c-0.02,3.01-1.98,5.47-5.6,6.38l6.46,8.38l-6.79-0.05l-6.29-8.38l0.03-3.48l2.38,0.02c2.91,0.02,4.49-1,4.51-3.28l0-0.43
			c0.02-2.27-1.55-3.26-4.46-3.28l-5.69-0.05L252.78,292.09z"/>
	</g>
	<g>
		<path class="st15" d="M271.03,268.82l10.74,0.09c6.12,0.05,9.41,2.35,9.38,6.67l-0.01,0.77c-0.01,1.3-1,3.24-2.94,4.12
			c1.97,0.62,3.53,2.44,3.51,4.54l-0.01,1.17c-0.03,3.61-2.89,6.2-9.05,6.15l-11.81-0.09L271.03,268.82z M282.69,278.65
			c1.87,0.02,3.08-0.74,3.1-2.45l0-0.27c0.01-1.81-1.22-2.45-3.96-2.47l-5.52-0.04l-0.04,5.18L282.69,278.65z M282.58,287.81
			c2.64,0.02,3.79-0.81,3.8-2.01l0.01-0.77c0.01-1.34-1.15-2.18-3.33-2.2l-6.82-0.05l-0.04,4.98L282.58,287.81z"/>
	</g>
	<g>
		<path class="st15" d="M306.66,269.22l-5.15-0.04l-10.08,23.22l5.42,0.04l2.51-6.04l9.1,0.07l2.48,6.08l5.63,0.05L306.66,269.22z
			 M301.31,281.76l2.64-6.33l2.61,6.38L301.31,281.76z"/>
	</g>
	<g>
		<path class="st8" d="M297.67,176.33c6.78,7.23,6.24,53.54,5.32,68.27l22.71,0.98c0,0,0.68-48.31-4.27-63.93
			c-1.22-3.84-2.99-4.12-15.76-6.49C300.57,174.22,297.56,173.06,297.67,176.33z"/>
	</g>
	<g>
		<polygon class="st17" points="328.28,217.68 327.98,224.94 300.45,223.08 300.7,215.37 		"/>
		<path class="st17" d="M327.98,226.92c-0.04,0-0.09,0-0.13,0l-27.53-1.86c-1.06-0.07-1.88-0.97-1.84-2.04l0.25-7.71
			c0.02-0.54,0.26-1.05,0.66-1.41c0.4-0.36,0.93-0.54,1.48-0.49l27.58,2.31c1.06,0.09,1.86,0.99,1.81,2.05l-0.3,7.26
			c-0.02,0.53-0.26,1.04-0.66,1.39C328.93,226.74,328.46,226.92,327.98,226.92z M302.49,221.23l23.59,1.59l0.14-3.33l-23.61-1.98
			L302.49,221.23z"/>
	</g>
	<g>
		<path class="st17" d="M325.7,247.56c-0.03,0-0.06,0-0.09,0l-22.71-0.98c-1.08-0.05-1.92-0.95-1.89-2.03l0.54-19.66
			c0.03-1.07,0.91-1.93,1.98-1.93c0.02,0,0.04,0,0.06,0c1.09,0.03,1.95,0.94,1.92,2.03l-0.48,17.72l18.71,0.81l0.02-5.32
			c0.01-1.09,0.89-1.97,1.98-1.97c0,0,0.01,0,0.01,0c1.09,0,1.97,0.89,1.97,1.99l-0.03,7.38c0,0.54-0.22,1.05-0.61,1.42
			C326.69,247.37,326.2,247.56,325.7,247.56z"/>
	</g>
	<g>
		<path class="st0" d="M241.51,259.72l7.69-35.03c0.39-1.53,1.84-2.54,3.41-2.39h0c1.71,0.17,2.98,1.66,2.88,3.37l-1,16.25
			l23.38-25.29l17.46-10.86c1-0.62,2.3-0.44,3.09,0.42l0,0c0.95,1.04,0.83,2.66-0.26,3.55l-14.52,11.8l-7.25,10.06
			c-0.4,0.51,0.23,1.19,0.77,0.83l11.97-7.91l18.29-12.77c1.05-0.73,2.48-0.53,3.29,0.45l0.66,0.81c0.86,1.05,0.7,2.61-0.36,3.46
			l-14.76,11.81l-12.93,11.28c-0.43,0.38,0.04,1.06,0.55,0.79l20.72-11.22l8.96-3.27c1.17-0.43,2.47,0.09,3.03,1.21l0.34,0.69
			c0.58,1.16,0.14,2.58-0.99,3.22l-11.62,6.54l-14.35,9.84c-0.47,0.33-0.08,1.06,0.45,0.85l20.41-8.13c1.2-0.48,2.57,0.06,3.12,1.24
			l0.15,0.32c0.53,1.15,0.1,2.52-1,3.15l-27.11,15.51l-6.71,5.97c-6.28,5.59-14.08,9.19-22.41,10.35l-2.37,0.33l-12.99-2.82
			L241.51,259.72z"/>
	</g>
	<g>
		<path class="st18" d="M186.03,344.91c16-13.61,31.33-26.81,44.32-34.47c12.99-7.66,18.72-18.86,16.28-27.1
			c5.01-4.84,8.85-5.69,9.27-6.97c-6.03-4.39-12.45-11.68-14.39-16.65c-2,0.47-5.96,3.44-9.56,6.71
			c-10.11-2.83-23.74,8.12-32.47,16.91C190.75,292.13,186.03,344.91,186.03,344.91z"/>
	</g>
	<g>
		<path class="st19" d="M167.61,310.03c-0.33,0-0.66-0.08-0.96-0.25c-0.95-0.53-1.3-1.74-0.76-2.69
			c3.9-6.99,11.39-11.89,16.67-14.67c-4.65-0.41-11.21-0.08-16.85,3.59c-0.92,0.59-2.14,0.33-2.74-0.58
			c-0.6-0.92-0.34-2.14,0.58-2.74c11.52-7.49,25.58-3.18,26.17-3c0.81,0.25,1.36,0.99,1.38,1.84c0.02,0.85-0.5,1.61-1.29,1.9
			c-0.15,0.06-14.9,5.6-20.46,15.57C168.98,309.67,168.3,310.03,167.61,310.03z"/>
	</g>
	<g>
		<path class="st19" d="M189.12,293.57c-0.34,0-0.68-0.09-0.99-0.27c-0.73-0.42-1.11-1.26-0.95-2.09
			c0.07-0.38,7.4-38.39,12.23-57.74c0.26-1.06,1.34-1.71,2.4-1.44c1.06,0.26,1.71,1.34,1.44,2.4c-3.68,14.76-8.84,40.49-11.08,51.85
			c3.59-3.18,8.71-7.79,12.6-11.58c0.78-0.77,2.03-0.75,2.8,0.03c0.76,0.78,0.75,2.03-0.03,2.8c-6.71,6.56-17.02,15.47-17.12,15.56
			C190.04,293.4,189.58,293.57,189.12,293.57z"/>
	</g>
	<g>
		<path class="st19" d="M179.48,348.17c-0.77,0-1.5-0.45-1.82-1.2c-0.43-1,0.04-2.17,1.04-2.6c4-1.71,14.77-10.36,25.18-18.72
			c8.57-6.88,17.43-14,23.91-18.44c0.9-0.61,2.13-0.39,2.75,0.52c0.62,0.9,0.39,2.13-0.52,2.75c-6.35,4.35-15.15,11.42-23.66,18.26
			c-11.6,9.31-21.61,17.36-26.11,19.28C180,348.12,179.74,348.17,179.48,348.17z"/>
	</g>
	<g>
		<path class="st19" d="M378.41,290.76c-0.95,0-1.78-0.68-1.95-1.64c-1.27-7.4,0.92-16.22,2.57-21.38c-2.9,1.8-6.77,5.51-8.88,12.93
			c-0.3,1.05-1.39,1.67-2.44,1.36c-1.05-0.3-1.66-1.39-1.36-2.44c4.28-15.08,15.24-17.28,15.7-17.37c0.71-0.13,1.44,0.14,1.9,0.7
			c0.46,0.56,0.57,1.33,0.29,2c-0.06,0.14-5.57,13.66-3.87,23.52c0.18,1.08-0.54,2.1-1.62,2.28
			C378.64,290.75,378.52,290.76,378.41,290.76z"/>
	</g>
	<g>
		<path class="st8" d="M199.4,174.96c11.62,5.42,18.4,40.09,18.01,67.99l21.7-0.84c0,0,0-59.12-20.54-71.35
			c-3.68-2.19-6.62-0.97-12.42,0.73C200.35,173.18,198.12,172.32,199.4,174.96z"/>
	</g>
	<g>
		<polygon class="st17" points="240.89,215.09 241.67,222.31 214.07,224.53 213.18,216.88 		"/>
		<path class="st17" d="M214.07,226.51c-0.99,0-1.85-0.75-1.96-1.75l-0.89-7.66c-0.06-0.54,0.1-1.08,0.45-1.49
			c0.35-0.42,0.85-0.67,1.39-0.71l27.71-1.78c1.04-0.08,1.98,0.71,2.09,1.76l0.78,7.22c0.06,0.53-0.1,1.06-0.44,1.47
			c-0.34,0.41-0.83,0.67-1.36,0.71l-27.6,2.22C214.17,226.51,214.12,226.51,214.07,226.51z M215.38,218.72l0.43,3.69l23.67-1.9
			l-0.36-3.31L215.38,218.72z"/>
	</g>
	<g>
		<path class="st17" d="M217.41,244.92c-0.55,0-1.08-0.23-1.45-0.64c-0.39-0.42-0.58-1-0.51-1.57c0.28-2.41-0.32-12.65-0.58-16.39
			c-0.07-1.09,0.75-2.03,1.84-2.11c1.08-0.03,2.04,0.75,2.11,1.84c0.08,1.18,0.68,10.04,0.66,14.83l17.66-0.68v-5.63
			c0-1.09,0.89-1.98,1.98-1.98s1.98,0.89,1.98,1.98v7.54c0,1.06-0.84,1.94-1.9,1.98l-21.7,0.84
			C217.46,244.92,217.44,244.92,217.41,244.92z"/>
	</g>
	<g>
		<path class="st8" d="M242.16,550.87c2.59,5.94,6.09,10.36-3.05,14.01l-4.03-8.04L242.16,550.87z"/>
	</g>
	<g>
		<path class="st17" d="M311.46,695.08c-9.12,0-20.21-2.03-26.67-4.49c-7.36-2.8-16.09-4.01-16.18-4.02
			c-1.08-0.15-1.84-1.14-1.69-2.23c0.15-1.08,1.15-1.84,2.23-1.69c0.38,0.05,9.26,1.28,17.06,4.25c7.54,2.87,21.72,5.14,30.8,3.9
			c1.08-0.12,2.08,0.61,2.22,1.7c0.15,1.08-0.61,2.08-1.7,2.23C315.67,694.97,313.62,695.08,311.46,695.08z"/>
	</g>
	<g>
		<path class="st17" d="M290.06,575.07c-0.18,0-0.37-0.03-0.56-0.08c-13.8-4.02-19.58-14.82-19.82-15.28
			c-0.38-0.73-0.27-1.61,0.27-2.23c0.54-0.61,1.41-0.83,2.18-0.54c5.82,2.21,18.96,3.94,19.09,3.95c1.08,0.14,1.85,1.13,1.71,2.22
			c-0.14,1.08-1.13,1.86-2.22,1.71c-0.42-0.05-7.88-1.03-14.23-2.52c2.78,3.06,7.39,6.92,14.13,8.88c1.05,0.31,1.65,1.41,1.34,2.45
			C291.7,574.51,290.91,575.07,290.06,575.07z"/>
	</g>
	<g>
		<path class="st2" d="M309.5,731.74c0,0,28.07,19.34,30.79,20.22c2.72,0.88,30.11,6.77,34.64,7.9c4.53,1.13,9.28,4.33,9.28,12.69
			s-2.49,7.83-2.49,7.83s-68.55-2.72-77.38-2.72c-8.83,0-40.21-3.09-42.77-3.99s-1.75-9.28,0-25.13
			c1.75-15.85,4.01-18.84,4.01-18.84S279.39,749.17,309.5,731.74z"/>
	</g>
	<g>
		<path class="st4" d="M324.19,762.81c-0.74,0-1.44-0.41-1.78-1.12c-0.48-0.98-0.06-2.17,0.92-2.64l4.19-2.02h-3.33
			c-1.09,0-1.98-0.89-1.98-1.98c0-1.09,0.89-1.98,1.98-1.98h11.97c0.92,0,1.72,0.64,1.93,1.54c0.21,0.9-0.24,1.82-1.07,2.22
			l-11.97,5.78C324.77,762.75,324.48,762.81,324.19,762.81z"/>
	</g>
	<g class="st20">
		<path class="st11" d="M189.12,785.75c30.87,0,57.24,1.9,67.89,4.59c10.65-2.69,37.02-4.59,67.89-4.59
			c40.29,0,72.94,3.24,72.94,7.23s-32.66,7.23-72.94,7.23c-30.87,0-57.24-1.9-67.89-4.59c-10.65,2.69-37.02,4.59-67.89,4.59
			c-40.29,0-72.94-3.24-72.94-7.23S148.83,785.75,189.12,785.75z"/>
	</g>
	<g>
		<path class="st1" d="M264.22,146.97c-0.34,0-0.68-0.09-1-0.27c-9.96-5.83-19.83-17.17-22.94-26.37c-0.35-1.04,0.2-2.16,1.24-2.51
			c1.03-0.35,2.16,0.2,2.51,1.24c2.8,8.27,12.11,18.91,21.19,24.22c0.94,0.55,1.26,1.76,0.71,2.71
			C265.56,146.62,264.9,146.97,264.22,146.97z"/>
	</g>
	<g>
		<path class="st15" d="M271.43,109.22c8.19-0.8,19.24,1.17,25.6,3.64c-1.19,3.69-1.46,4.77-3.4,4.36c-2.25-0.47-22.5-2.72-25.94-3
			c-0.02-0.14-0.04-0.27-0.06-0.41C267.42,111.49,269.12,109.44,271.43,109.22z"/>
	</g>
	<g>
		<path class="st15" d="M292.94,127.84c-5.81,4.2-13.45,2.81-18.82-1.77C279.52,125.86,290.04,125.75,292.94,127.84z"/>
	</g>
</g>
</svg>
