<?xml version="1.0" encoding="utf-8"?>
<!-- Generator: Adobe Illustrator 27.7.0, SVG Export Plug-In . SVG Version: 6.00 Build 0)  -->
<svg version="1.1" id="Calque_1" xmlns="http://www.w3.org/2000/svg" xmlns:xlink="http://www.w3.org/1999/xlink" x="0px" y="0px"
	 viewBox="0 0 595.28 841.89" style="enable-background:new 0 0 595.28 841.89;" xml:space="preserve">
<style type="text/css">
	.st0{opacity:0.07;}
	.st1{fill:#1D1D1C;}
	.st2{opacity:0.09;}
	.st3{fill:#3B2D25;}
	.st4{fill:#4D3B34;}
	.st5{fill:#5C4A43;}
	.st6{fill:#5C4A42;}
	.st7{fill:#755E55;}
	.st8{fill:#937563;}
	.st9{fill:#7D6557;}
	.st10{fill:#A3897B;}
	.st11{fill:#6D574A;}
	.st12{fill:#765F50;}
	.st13{fill:#373437;}
	.st14{fill:#1A191B;}
	.st15{fill:#DDB7A5;}
	.st16{fill:#1A4258;}
	.st17{fill:#ECC03E;}
	.st18{fill:#EEF2F5;}
	.st19{fill:#C28E0B;}
	.st20{fill:#262325;}
	.st21{fill:#CFD8D3;}
	.st22{fill:#6EAB2E;}
	.st23{opacity:0.31;}
	.st24{fill:#FFFFFF;}
	.st25{fill:#E20E18;}
	.st26{fill:#E7E6E6;}
	.st27{clip-path:url(#SVGID_00000135684739809877766200000011333252943209199499_);}
	.st28{opacity:0.5;}
	.st29{clip-path:url(#SVGID_00000036946178897942781270000003394308866940124055_);}
	.st30{fill:#C7967C;}
	.st31{fill:#997265;}
	.st32{fill:#0A1C29;}
	.st33{fill:#272526;}
</style>
<g>
	<g class="st0">
		<path class="st1" d="M370.15,524.66c-99.81,0-184.04,15.65-210.58,37.07c-9.56-0.36-19.55-0.55-29.84-0.55
			c-68.43,0-123.91,8.41-123.91,18.78s55.48,18.78,123.91,18.78c14.45,0,28.32-0.38,41.21-1.07
			c34.74,17.67,110.87,29.93,199.21,29.93c121.12,0,219.3-23.04,219.3-51.47C589.45,547.7,491.27,524.66,370.15,524.66z"/>
	</g>
	<g class="st2">
		<ellipse class="st1" cx="97.97" cy="581.38" rx="40.15" ry="4.85"/>
	</g>
	<g class="st2">
		<ellipse class="st1" cx="131.5" cy="570.67" rx="40.15" ry="4.85"/>
	</g>
	<g>
		<path class="st3" d="M544.68,545.94c-1.5-2.07-28.34-7.21-28.34-7.21l-264.55,1.51l-52.4,1.64l19.14,21.09l142.26,53.75
			L544.68,545.94z"/>
	</g>
	<g>
		<path class="st4" d="M351.84,605.35c0,0,184.49-62.54,183.42-62.54c-0.34,0,0.58-15.81,0.58-15.81
			c-54.95,11.69-186.42,55.35-186.42,55.35l-4.83,14.11L351.84,605.35z"/>
	</g>
	<g>
		<path class="st5" d="M330.59,583.75v16.81c0,0,21.63,8.99,21.37,8.6c-0.26-0.39,0-19.8,0-19.8L330.59,583.75z"/>
	</g>
	<g>
		<path class="st6" d="M360.79,595.16l182.14-61.52c0.69-0.23,1.18-0.87,1.22-1.6l0.9-14.94c0.08-1.29-1.18-2.24-2.4-1.8l-0.88,0.32
			l-133.81,21.29l-47.16,37.88l-6.56,6.28L360.79,595.16z"/>
	</g>
	<g>
		<path class="st4" d="M223.76,551.69c0,0,181.71-57.29,180.64-57.29s-183.06,34.29-183.06,34.29l-4.83,14.11L223.76,551.69z"/>
	</g>
	<g>
		<path class="st5" d="M202.5,530.09v16.81c0,0,21.63,8.99,21.37,8.6s0-19.8,0-19.8L202.5,530.09z"/>
	</g>
	<g>
		<path class="st4" d="M284.11,576.7c0,0,181.71-57.29,180.64-57.29c-1.07,0-183.06,34.29-183.06,34.29l-4.83,14.11L284.11,576.7z"
			/>
	</g>
	<g>
		<path class="st5" d="M262.85,555.1v16.81c0,0,21.63,8.99,21.37,8.6c-0.26-0.39,0-19.8,0-19.8L262.85,555.1z"/>
	</g>
	<g>
		<path class="st7" d="M201.11,512.32l-1.72-0.48c-1.22-0.34-2.42,0.58-2.42,1.84v14.62c0,0.78,0.48,1.49,1.2,1.78l162.62,65.08
			v-26.33c0,0-150.92-58.92-151.58-59.67C208.55,508.41,201.11,512.32,201.11,512.32z"/>
	</g>
	<g>
		<path class="st6" d="M360.79,628.58l182.14-64.9c0.69-0.23,1.18-0.87,1.22-1.6l0.9-14.94c0.08-1.29-1.18-2.24-2.4-1.8l-0.88,0.32
			L360.79,608.2l-6.56,6.28L360.79,628.58z"/>
	</g>
	<g>
		<path class="st7" d="M201.11,542.35l-1.72-0.48c-1.22-0.34-2.42,0.58-2.42,1.84v14.62c0,0.78,0.48,1.49,1.2,1.78l162.62,68.45
			V608.2L201.11,542.35z"/>
	</g>
	<g>
		<polygon class="st8" points="201.63,429.54 201.11,512.32 276.89,539.78 302.47,438.95 		"/>
	</g>
	<g>
		<polygon class="st9" points="541.4,430.3 541.77,515.62 456.36,542.43 422.12,468.3 451.09,428.41 		"/>
	</g>
	<g>
		<polygon class="st9" points="456.36,456.63 456.36,542.43 360.79,574.79 332.95,511.57 360.79,454 		"/>
	</g>
	<g>
		<polygon class="st8" points="360.79,483.72 360.79,574.79 276.89,539.78 276.89,456.63 338.22,454 		"/>
	</g>
	<g>
		<polygon class="st10" points="276.89,456.63 360.79,483.72 456.36,456.63 366.62,412.61 		"/>
	</g>
	<g>
		<path class="st9" d="M544.41,357.25l-3.01,73.05l-85.04,26.34c0,0-28.97-53.59-27.84-54.64c1.13-1.05,20.32-40.89,21.82-42.23
			c1.51-1.34,71.49-2.52,71.49-2.52H544.41z"/>
	</g>
	<g>
		<path class="st8" d="M363.8,352.41l-18.81,33.51l18.81,46.63l92.56,24.08l-0.38-79.02c0,0-20.69-25.95-21.82-25.2
			S363.8,352.41,363.8,352.41z"/>
	</g>
	<g>
		<polygon class="st9" points="363.8,352.41 363.8,432.55 276.89,456.63 258.45,377.1 283.66,354.67 		"/>
	</g>
	<g>
		<polygon class="st8" points="196.87,352.41 201.63,429.54 276.89,456.63 276.14,372.6 258.45,355.01 		"/>
	</g>
	<g>
		<polygon class="st10" points="196.87,352.41 364.18,321.93 544.41,357.25 455.98,377.61 363.8,352.41 276.14,372.6 		"/>
	</g>
	<g>
		<path class="st8" d="M367.48,352.24c-0.49,0-0.94-0.34-1.06-0.84c-0.14-0.58,0.23-1.17,0.81-1.31l63.57-14.89
			c0.59-0.13,1.17,0.23,1.31,0.81c0.14,0.59-0.23,1.17-0.81,1.31l-63.57,14.89C367.64,352.23,367.56,352.24,367.48,352.24z"/>
	</g>
	<g>
		<path class="st8" d="M360.79,352.24c-0.08,0-0.17-0.01-0.25-0.03l-62.34-14.89c-0.58-0.14-0.95-0.73-0.81-1.31
			c0.14-0.58,0.73-0.94,1.31-0.81l62.34,14.89c0.58,0.14,0.95,0.73,0.81,1.31C361.73,351.9,361.28,352.24,360.79,352.24z"/>
	</g>
	<g>
		<path class="st11" d="M459.54,456.77c-0.46,0-0.89-0.3-1.04-0.77c-0.18-0.57,0.14-1.18,0.72-1.36l78.93-24.52
			c0.58-0.18,1.18,0.14,1.36,0.72c0.18,0.57-0.14,1.18-0.72,1.36l-78.93,24.52C459.76,456.76,459.65,456.77,459.54,456.77z"/>
	</g>
	<g>
		<path class="st12" d="M272.25,456.1c-0.12,0-0.25-0.02-0.37-0.06l-66.6-23.84c-0.57-0.2-0.86-0.83-0.66-1.39
			c0.2-0.56,0.83-0.85,1.39-0.66l66.6,23.84c0.57,0.2,0.86,0.83,0.66,1.39C273.12,455.82,272.7,456.1,272.25,456.1z"/>
	</g>
	<g>
		<path class="st12" d="M276.89,534.34c-0.6,0-1.09-0.49-1.09-1.09v-73.68c0-0.6,0.49-1.09,1.09-1.09c0.6,0,1.09,0.49,1.09,1.09
			v73.68C277.98,533.85,277.49,534.34,276.89,534.34z"/>
	</g>
	<g>
		<path class="st11" d="M456.36,534.34c-0.6,0-1.09-0.49-1.09-1.09v-73.68c0-0.6,0.49-1.09,1.09-1.09c0.6,0,1.09,0.49,1.09,1.09
			v73.68C457.45,533.85,456.96,534.34,456.36,534.34z"/>
	</g>
	<g>
		<path class="st13" d="M108.1,563.28c-0.83,0.65-0.93,0.77-0.93,2.36s0,2.83,0,3.37c0,0.53,0.34,0.71,1.58,0.71s14.76,0,15.41,0
			s0.89-2.38,0.89-2.38s2.13,2.38,3.48,2.38c1.36,0,25.6,0,26.35,0s0.93-1.38,0.93-2.38c0-1.19,0-2.24-0.38-2.53
			c-0.9-0.69-27.13-3.89-27.13-3.89L108.1,563.28z"/>
	</g>
	<g>
		<path class="st14" d="M107.17,560.49c0,0,0,0.8,0,2c0,1.2,0.85,2.29,6.9,2.31c6.05,0.02,41.37,0,41.37,0s2.41-6.18-4.81-7.32
			c-7.22-1.14-16.84-2.03-16.84-2.03l-8.65-6.89l-13.25-3.62L107.17,560.49z"/>
	</g>
	<g>
		<path class="st13" d="M71.18,574.87c-0.9,0.71-1.01,0.83-1.01,2.57s0,3.08,0,3.66c0,0.58,0.37,0.77,1.72,0.77s16.04,0,16.74,0
			s0.96-2.58,0.96-2.58s2.31,2.58,3.78,2.58c1.48,0,27.8,0,28.62,0s1.01-1.5,1.01-2.58c0-1.29,0-2.43-0.42-2.75
			c-0.97-0.74-29.47-4.22-29.47-4.22L71.18,574.87z"/>
	</g>
	<g>
		<path class="st14" d="M70.17,571.85c0,0,0,0.86,0,2.17c0,1.3,0.92,2.49,7.49,2.51c6.57,0.03,44.93,0,44.93,0s2.61-6.71-5.23-7.95
			c-7.84-1.24-18.29-2.2-18.29-2.2l-9.4-7.48l-14.39-3.93L70.17,571.85z"/>
	</g>
	<g>
		<path class="st13" d="M73.85,392.28c-1.69,14.73,8.93,84.02,8.93,84.02s-3.14,4.35,0,5.8l-6.63,64.89c0,0-4.94,3.27-1.5,5.79
			c0,0-2.98,3.47-0.69,4.08c0,0-2.64,3.02,0,4.28c2.64,1.26,12.5,2.44,17.99,0.92c2.06-0.57,1.15-3.9,0-4.13
			c0,0,1.95-2.98,0.23-3.21c0,0,16.82-64.76,17.85-72.63c1.03-7.87,5.61-38.27,5.61-38.27l4.28,35.42c0,0-3.09,3.14,0,4.13
			c0,0-5.62,43.25-6.72,48.56c0,0-3.32,3.1-1.99,4.13c1.33,1.03-1.18,2.66-0.44,4.43c0.74,1.77-0.15,3.5-0.44,5.22
			c-0.3,1.72,0,3.93,0,3.93s11.07,0.87,16.24,0c0,0,2.51-3.73,0-3.93c0,0,3.41-1.97,1.12-3.01c0,0,16.6-63.47,18.22-71.73
			c1.62-8.27-7.08-76.31-7.08-76.31L73.85,392.28z"/>
	</g>
	<g>
		<path class="st13" d="M101.06,287.44c5.48-6.52,9.72-7.48,8.34-13.07c-1.38-5.59-1.53-10.48,3.06-14.48
			c4.59-4,8.29-10.81,10.22-19.25c1.93-8.44,3.26-19.4,14.07-23.7c10.81-4.3,24.59-5.33,27.85,0c6.81-1.04,22.96,3.7,22.81,16.29
			c-0.15,12.59-1.93,20.74-6.07,27.55c-4.15,6.81-9.63,16-8.89,23.85c0.74,7.85-2.07,16.29-8,20.59
			C158.53,309.51,101.06,287.44,101.06,287.44z"/>
	</g>
	<g>
		<path class="st15" d="M236.15,338.17l16.21-3.48c2.54-0.54,5.16-0.55,7.7-0.03l15.64,3.23c0.69,0.14,1.09,0.86,0.86,1.52
			l-0.02,0.05c-0.18,0.52-0.71,0.84-1.25,0.76c-3.01-0.43-12.23-1.75-11.95-1.75c0.28,0,10.9,3.32,14.43,4.42
			c0.62,0.19,0.96,0.86,0.75,1.47l-0.19,0.57c-0.19,0.56-0.76,0.89-1.34,0.77L262,342.59l14.32,5.19c0.63,0.23,0.94,0.95,0.66,1.56
			l0,0c-0.22,0.5-0.77,0.78-1.3,0.66c-3.48-0.76-15.63-3.45-15.35-3.64c0.27-0.18,9.29,3.69,12.79,5.2c0.69,0.3,0.92,1.17,0.45,1.77
			l-0.28,0.37c-0.28,0.37-0.76,0.53-1.21,0.41c-3.43-0.91-17.75-4.68-20.2-4.98c-2.46-0.3-0.8,3.15,3.73,4.87
			c0.98,0.37,1.4,1.52,0.92,2.45l0,0c-0.33,0.63-1.01,1.01-1.72,0.93c-2.56-0.26-8.95-1.38-16.09-6.15
			C229.45,345.03,236.15,338.17,236.15,338.17z"/>
	</g>
	<g>
		<path class="st16" d="M168.63,300.81c7.49,6.23,30.42,27.76,31.71,28.23c1.29,0.47,2.69-0.94,3.63,0c0.94,0.94,0.7,2.34,0.7,2.34
			s8.31,4.8,23.75,6.79c0,0,0.23-1.87,1.76-1.76c1.52,0.12,2.34,1.76,2.34,1.76s1.52,0.23,3.63,0c2.57,3.16,3.39,9.76,2.57,13.07
			c0,0-23.52,4.13-43.06-3.01s-40.96-27.4-40.96-27.4L168.63,300.81z"/>
	</g>
	<g>
		<path class="st17" d="M127.52,277.27c-19.87,3.45-29.1,7.39-32.65,15.1s-16.59,50.65-18.96,55.39c-2.37,4.74-1.48,7.41,0,8.89
			c1.48,1.48-1.18,2.07-2.37,5.92s-6.81,36.29-6.81,36.29s31.25,7.7,52.43,7.11l4-7.11l1.78,7.14c0,0,11.4-0.02,18.37-4.02
			c0,0,1.93-37.33,2.96-41.48c2.22-1.93,2.37-4.3,0-5.78c0,0-1.01-8,5.27-15.92c6.28-7.92,16.67-26.72,17.1-37.99l-17.16-13.84
			L127.52,277.27z"/>
	</g>
	<g>
		<path class="st18" d="M89.01,357.22c10.53,4.42,22.11,6.74,33.45,7.69c7.68,0.65,15.52,0.76,23.24-0.03
			c0.2-2.13,0.4-3.7,0.57-4.38c2.22-1.93,2.37-4.3,0-5.78c0,0-0.33-2.7,0.61-6.5c-4.22,0.19-8.35,0.16-12.24,0.01
			c-10.62-0.42-22.51-1.3-32.55-5.03c-8-2.97-14.25-8.14-19.68-14.24c-3,9.19-5.57,16.94-6.5,18.8c-0.24,0.47-0.43,0.92-0.6,1.35
			C79.26,352.64,84.2,355.2,89.01,357.22z"/>
	</g>
	<g>
		<path class="st18" d="M116.1,392.22c9.12,0.43,18.54,0.63,27.75-0.25c0.27-4.66,0.6-10.33,0.96-15.58
			c-13.51,1.18-27.45-0.13-40.35-2.82c-9.88-2.06-21.46-5.45-30.76-11.43c-0.05,0.15-0.11,0.29-0.15,0.44
			c-0.62,2.02-2.46,11.86-4.07,20.79C81.73,392.96,101.55,391.54,116.1,392.22z"/>
	</g>
	<g>
		<path class="st19" d="M123.01,395.18c-0.01,0-0.02,0-0.02,0c-0.6-0.01-1.08-0.51-1.06-1.11c0.67-30.06,8.83-55.19,12.32-65.93
			c0.48-1.47,0.87-2.69,1.17-3.66c0.17-0.57,0.78-0.9,1.36-0.73c0.58,0.17,0.9,0.78,0.73,1.36c-0.3,0.98-0.7,2.22-1.18,3.7
			c-3.46,10.64-11.55,35.56-12.21,65.3C124.09,394.71,123.6,395.18,123.01,395.18z"/>
	</g>
	<g>
		<path class="st16" d="M127.52,277.56c0,0,11.3,30.41,10.88,43.28c0,0,11.68-16.1,13.08-33.57
			C152.87,269.79,127.52,277.56,127.52,277.56z"/>
	</g>
	<g>
		<path class="st15" d="M178.46,236.18c-0.99,21.61-6.57,38.62-11.34,43.22c-4.77,4.6-10.19,2.63-14.79,0.99l-0.86,6.58
			c0,0-17.64,5.13-23.96-9.71l7.23-22.19c0,0-6.41-1.81-3.29-8.71c3.12-6.9,6.41-2.79,6.24-0.82c0,0,6.41,4.44,13.48-2.79
			c7.07-7.23,14.46-15.61,20.87-12.98C172.05,229.77,174.52,234.87,178.46,236.18z"/>
	</g>
	<g>
		<path class="st15" d="M150.81,385.48c6.25,4.83,16.13,11.67,17.83,12.57c1.7,0.9,9.17,0.97,18.78-6.28l-18.78-14.49l-12.52-3.09
			L150.81,385.48z"/>
	</g>
	<g>
		<path class="st16" d="M106.15,285.86c-9.22,2.07-11.98,22.24-7.85,44.12s8.47,36.17,16.32,39.66s27.65,12.58,28.71,12.79
			c1.06,0.21,0.11,2.11,1.98,2.86s2.57-1.02,3.61-0.71c1.04,0.31,1.87,0.9,1.87,0.9s5.1-4.02,5.3-11.3
			c-2.29-0.62-3.02-1.56-3.02-1.56s-0.42-2.21-1.56-2.98c-1.14-0.77-3.22,0.69-3.22,0.69s-16.85-10.71-18.83-13
			c0.52-2.08-0.1-3.54-2.5-2.81c0,0-2.7-10.15-2.47-27.24S120.2,282.71,106.15,285.86z"/>
	</g>
	<g>
		<path class="st20" d="M158.95,376.57c-1.34,6.49-9.42,12.89-11.24,12.58c-1.37-0.24-1.39-1.87-0.01-4.21
			c-0.6,0.37-1.29,0.79-2.39,0.35c-0.2-0.08-0.36-0.17-0.5-0.27c-1.21,2.45-1.51,5.21,1.85,6.66c6.95,3.01,14.89-13.53,14.89-13.53
			L158.95,376.57z"/>
	</g>
	<g>
		<path class="st13" d="M156.46,365.74l-3.1,6.35c-0.56,1.37,0.05,2.93,1.38,3.57l11.84,6.78c0.63,0.3,1.12,0.83,1.38,1.48
			l1.52,3.77c0.25,0.62,0.71,1.12,1.3,1.43l23.96,12.53c1.39,0.73,3.1,0.17,3.8-1.24l9-18.18c0.7-1.42,0.09-3.13-1.35-3.79
			l-24.36-10.99c-0.47-0.21-0.99-0.29-1.5-0.22l-7.35,0.94c-0.41,0.05-0.84,0.01-1.23-0.12l-11.81-3.92
			C158.53,363.68,157.01,364.38,156.46,365.74z"/>
	</g>
	<g>
		<path class="st21" d="M179.29,372.75l-5.23,10.26c-0.7,1.37-0.15,3.04,1.21,3.73l18.41,9.42c1.37,0.7,3.05,0.15,3.75-1.22
			l5.69-11.3c0.71-1.42,0.1-3.14-1.35-3.79l-18.86-8.38C181.55,370.87,179.96,371.43,179.29,372.75z"/>
	</g>
	<g>
		<polygon class="st22" points="191.51,393.77 179.51,378.07 192.91,377.54 193.05,381.17 186.64,381.42 194.4,391.57 		"/>
	</g>
	<g class="st23">
		<path class="st24" d="M176.36,386.65l9.08,4.65l16.99-9c-0.08-0.91-0.62-1.75-1.52-2.15l-6.17-2.74L176.36,386.65z"/>
	</g>
	<g>
		<path class="st21" d="M158.98,367.94l-0.72-0.33c-0.27-0.12-0.38-0.44-0.26-0.71l0.71-1.53c0.12-0.27,0.44-0.38,0.71-0.26
			l0.72,0.33c0.27,0.12,0.38,0.44,0.26,0.71l-0.71,1.53C159.56,367.94,159.24,368.06,158.98,367.94z"/>
	</g>
	<g>
		<path class="st21" d="M157.51,370.88l-0.72-0.33c-0.27-0.12-0.38-0.44-0.26-0.71l0.71-1.53c0.12-0.27,0.44-0.38,0.71-0.26
			l0.72,0.33c0.27,0.12,0.38,0.44,0.26,0.71l-0.71,1.53C158.09,370.89,157.78,371.01,157.51,370.88z"/>
	</g>
	<g>
		<path class="st21" d="M156.05,374.28l-0.72-0.33c-0.27-0.12-0.38-0.44-0.26-0.71l0.71-1.53c0.12-0.27,0.44-0.38,0.71-0.26
			l0.72,0.33c0.27,0.12,0.38,0.44,0.26,0.71l-0.71,1.53C156.64,374.29,156.32,374.4,156.05,374.28z"/>
	</g>
	<g>
		<path class="st21" d="M161.66,368.95l-0.72-0.33c-0.27-0.12-0.38-0.44-0.26-0.71l0.71-1.53c0.12-0.27,0.44-0.38,0.71-0.26
			l0.72,0.33c0.27,0.12,0.38,0.44,0.26,0.71l-0.71,1.53C162.24,368.95,161.92,369.07,161.66,368.95z"/>
	</g>
	<g>
		<path class="st21" d="M160.19,371.89l-0.72-0.33c-0.27-0.12-0.38-0.44-0.26-0.71l0.71-1.53c0.12-0.27,0.44-0.38,0.71-0.26
			l0.72,0.33c0.27,0.12,0.38,0.44,0.26,0.71l-0.71,1.53C160.77,371.9,160.46,372.02,160.19,371.89z"/>
	</g>
	<g>
		<path class="st21" d="M158.73,375.29l-0.72-0.33c-0.27-0.12-0.38-0.44-0.26-0.71l0.71-1.53c0.12-0.27,0.44-0.38,0.71-0.26
			l0.72,0.33c0.27,0.12,0.38,0.44,0.26,0.71l-0.71,1.53C159.32,375.3,159,375.42,158.73,375.29z"/>
	</g>
	<g>
		<path class="st21" d="M164.27,370.15l-0.72-0.33c-0.27-0.12-0.38-0.44-0.26-0.71l0.71-1.53c0.12-0.27,0.44-0.38,0.71-0.26
			l0.72,0.33c0.27,0.12,0.38,0.44,0.26,0.71l-0.71,1.53C164.85,370.16,164.53,370.27,164.27,370.15z"/>
	</g>
	<g>
		<path class="st21" d="M162.8,373.1l-0.72-0.33c-0.27-0.12-0.38-0.44-0.26-0.71l0.71-1.53c0.12-0.27,0.44-0.38,0.71-0.26l0.72,0.33
			c0.27,0.12,0.38,0.44,0.26,0.71l-0.71,1.53C163.38,373.1,163.07,373.22,162.8,373.1z"/>
	</g>
	<g>
		<path class="st21" d="M161.34,376.5l-0.72-0.33c-0.27-0.12-0.38-0.44-0.26-0.71l0.71-1.53c0.12-0.27,0.44-0.38,0.71-0.26
			l0.72,0.33c0.27,0.12,0.38,0.44,0.26,0.71l-0.71,1.53C161.93,376.5,161.61,376.62,161.34,376.5z"/>
	</g>
	<g>
		<path class="st21" d="M166.9,371.36l-0.72-0.33c-0.27-0.12-0.38-0.44-0.26-0.71l0.71-1.53c0.12-0.27,0.44-0.38,0.71-0.26
			l0.72,0.33c0.27,0.12,0.38,0.44,0.26,0.71l-0.71,1.53C167.48,371.37,167.16,371.49,166.9,371.36z"/>
	</g>
	<g>
		<path class="st21" d="M165.43,374.31l-0.72-0.33c-0.27-0.12-0.38-0.44-0.26-0.71l0.71-1.53c0.12-0.27,0.44-0.38,0.71-0.26
			l0.72,0.33c0.27,0.12,0.38,0.44,0.26,0.71l-0.71,1.53C166.01,374.31,165.7,374.43,165.43,374.31z"/>
	</g>
	<g>
		<path class="st21" d="M163.97,377.71l-0.72-0.33c-0.27-0.12-0.38-0.44-0.26-0.71l0.71-1.53c0.12-0.27,0.44-0.38,0.71-0.26
			l0.72,0.33c0.27,0.12,0.38,0.44,0.26,0.71l-0.71,1.53C164.56,377.71,164.24,377.83,163.97,377.71z"/>
	</g>
	<g>
		<path class="st21" d="M169.75,372.68l-0.72-0.33c-0.27-0.12-0.38-0.44-0.26-0.71l0.71-1.53c0.12-0.27,0.44-0.38,0.71-0.26
			l0.72,0.33c0.27,0.12,0.38,0.44,0.26,0.71l-0.71,1.53C170.34,372.69,170.02,372.8,169.75,372.68z"/>
	</g>
	<g>
		<path class="st21" d="M168.29,375.62l-0.72-0.33c-0.27-0.12-0.38-0.44-0.26-0.71l0.71-1.53c0.12-0.27,0.44-0.38,0.71-0.26
			l0.72,0.33c0.27,0.12,0.38,0.44,0.26,0.71l-0.71,1.53C168.87,375.63,168.55,375.75,168.29,375.62z"/>
	</g>
	<g>
		<path class="st21" d="M166.83,379.02l-0.72-0.33c-0.27-0.12-0.38-0.44-0.26-0.71l0.71-1.53c0.12-0.27,0.44-0.38,0.71-0.26
			l0.72,0.33c0.27,0.12,0.38,0.44,0.26,0.71l-0.71,1.53C167.42,379.03,167.1,379.15,166.83,379.02z"/>
	</g>
	<g>
		<path class="st25" d="M173.23,376.01l-0.72-0.33c-0.27-0.12-0.38-0.44-0.26-0.71l0.71-1.53c0.12-0.27,0.44-0.38,0.71-0.26
			l0.72,0.33c0.27,0.12,0.38,0.44,0.26,0.71l-0.71,1.53C173.82,376.02,173.5,376.14,173.23,376.01z"/>
	</g>
	<g>
		<path class="st22" d="M174.7,372.83l-0.72-0.33c-0.27-0.12-0.38-0.44-0.26-0.71l0.71-1.53c0.12-0.27,0.44-0.38,0.71-0.26
			l0.72,0.33c0.27,0.12,0.38,0.44,0.26,0.71l-0.71,1.53C175.29,372.84,174.97,372.95,174.7,372.83z"/>
	</g>
	<g>
		<path class="st21" d="M171.77,378.96l-0.72-0.33c-0.27-0.12-0.38-0.44-0.26-0.71l0.71-1.53c0.12-0.27,0.44-0.38,0.71-0.26
			l0.72,0.33c0.27,0.12,0.38,0.44,0.26,0.71l-0.71,1.53C172.35,378.97,172.04,379.08,171.77,378.96z"/>
	</g>
	<g>
		<path class="st21" d="M170.31,382.36l-0.72-0.33c-0.27-0.12-0.38-0.44-0.26-0.71l0.71-1.53c0.12-0.27,0.44-0.38,0.71-0.26
			l0.72,0.33c0.27,0.12,0.38,0.44,0.26,0.71l-0.71,1.53C170.9,382.36,170.58,382.48,170.31,382.36z"/>
	</g>
	<g>
		<path class="st26" d="M216.04,388.05l1.14,20.63c0.06,1.04,0.75,1.94,1.74,2.26l34.45,11.1c1.64,0.53,3.32-0.71,3.29-2.44
			l-0.35-22.23c-0.02-1.12-0.78-2.1-1.86-2.39l-35.25-9.5C217.55,385.04,215.95,386.34,216.04,388.05z"/>
	</g>
	<g>
		<defs>
			<path id="SVGID_1_" d="M218.87,390.44l0.67,17.08c0.03,0.86,0.62,1.61,1.48,1.9l29.9,9.75c1.42,0.46,2.91-0.53,2.91-1.96
				l0.05-18.39c0-0.93-0.65-1.75-1.59-2.01l-30.62-8.44C220.24,387.97,218.81,389.02,218.87,390.44z"/>
		</defs>
		<clipPath id="SVGID_00000103223706899184931600000009054656153584798635_">
			<use xlink:href="#SVGID_1_"  style="overflow:visible;"/>
		</clipPath>
		<g style="clip-path:url(#SVGID_00000103223706899184931600000009054656153584798635_);">
			<polygon class="st13" points="224.48,415.68 221.83,415.78 220.54,385.96 223.18,385.86 			"/>
		</g>
		<g style="clip-path:url(#SVGID_00000103223706899184931600000009054656153584798635_);">
			<polygon class="st13" points="244.31,420.31 243.16,420.35 241.92,390.52 243.07,390.48 			"/>
		</g>
		<g style="clip-path:url(#SVGID_00000103223706899184931600000009054656153584798635_);">
			<polygon class="st13" points="232.88,417.27 231.19,417.33 229.93,387.5 231.62,387.44 			"/>
		</g>
		<g style="clip-path:url(#SVGID_00000103223706899184931600000009054656153584798635_);">
			<polygon class="st13" points="241.91,419.72 239.26,419.82 237.97,390 240.61,389.9 			"/>
		</g>
		<g style="clip-path:url(#SVGID_00000103223706899184931600000009054656153584798635_);">
			<polygon class="st13" points="226.15,415.62 225.08,415.66 223.78,385.84 224.86,385.8 			"/>
		</g>
		<g style="clip-path:url(#SVGID_00000103223706899184931600000009054656153584798635_);">
			<polygon class="st13" points="230.03,416.4 228.95,416.44 227.66,386.61 228.74,386.57 			"/>
		</g>
		<g style="clip-path:url(#SVGID_00000103223706899184931600000009054656153584798635_);">
			<polygon class="st13" points="236.23,418.07 235.15,418.11 233.86,388.29 234.94,388.25 			"/>
		</g>
		<g style="clip-path:url(#SVGID_00000103223706899184931600000009054656153584798635_);">
			<polygon class="st13" points="252.16,423.05 251.08,423.06 250.8,393.21 251.88,393.2 			"/>
		</g>
		<g style="clip-path:url(#SVGID_00000103223706899184931600000009054656153584798635_);">
			<polygon class="st13" points="228.54,416.45 228,416.47 226.71,386.65 227.24,386.63 			"/>
		</g>
		<g style="clip-path:url(#SVGID_00000103223706899184931600000009054656153584798635_);">
			<polygon class="st13" points="238.11,418.59 237.57,418.61 236.28,388.79 236.82,388.77 			"/>
		</g>
		<g style="clip-path:url(#SVGID_00000103223706899184931600000009054656153584798635_);">
			<polygon class="st13" points="248.02,421.32 247.48,421.34 246.72,391.5 247.26,391.49 			"/>
		</g>
		<g style="clip-path:url(#SVGID_00000103223706899184931600000009054656153584798635_);">
			<polygon class="st13" points="249.53,422.64 248.99,422.65 248.23,392.81 248.77,392.8 			"/>
		</g>
		<g style="clip-path:url(#SVGID_00000103223706899184931600000009054656153584798635_);">
			<polygon class="st13" points="250.21,423.06 249.67,423.06 249.39,393.22 249.93,393.22 			"/>
		</g>
		<g style="clip-path:url(#SVGID_00000103223706899184931600000009054656153584798635_);">
			<polygon class="st13" points="246.49,421.28 245.95,421.3 244.65,391.48 245.19,391.46 			"/>
		</g>
	</g>
	<g class="st28">
		<defs>
			<path id="SVGID_00000111190446040912200100000017760459309335469746_" class="st28" d="M204.56,386.84l31.09-11.79l2.48,37.66
				c0,0-18.59,15.36-19.22,15.2c-0.64-0.17-19.3-30.26-19.3-30.26L204.56,386.84z"/>
		</defs>
		<clipPath id="SVGID_00000039815356517266402390000012217444652734313353_">
			<use xlink:href="#SVGID_00000111190446040912200100000017760459309335469746_"  style="overflow:visible;"/>
		</clipPath>
		<g style="clip-path:url(#SVGID_00000039815356517266402390000012217444652734313353_);">
			<path class="st22" d="M199.05,402.93c-3.26,0-6.37-1.17-8.84-3.34c-2.7-2.37-4.32-5.64-4.56-9.23
				c-0.49-7.4,5.14-13.81,12.54-14.3c7.4-0.46,13.81,5.14,14.3,12.54l0,0c0.24,3.58-0.94,7.05-3.31,9.75
				c-2.37,2.7-5.64,4.32-9.23,4.55C199.65,402.92,199.35,402.93,199.05,402.93z M199.09,378.45c-0.25,0-0.49,0.01-0.74,0.02
				c-6.07,0.4-10.68,5.66-10.28,11.73c0.19,2.94,1.52,5.63,3.74,7.57c2.22,1.94,5.06,2.91,7.99,2.71c2.94-0.19,5.63-1.52,7.57-3.73
				s2.9-5.05,2.71-7.99l0,0c-0.19-2.94-1.52-5.63-3.74-7.57C204.31,379.41,201.76,378.45,199.09,378.45z"/>
		</g>
		<g style="clip-path:url(#SVGID_00000039815356517266402390000012217444652734313353_);">
			<path class="st22" d="M199.06,411.44c-11.46,0-21.14-8.92-21.9-20.52c-0.8-12.08,8.39-22.56,20.47-23.36
				c5.85-0.37,11.51,1.53,15.92,5.4c4.41,3.87,7.05,9.22,7.44,15.07l0,0c0.39,5.85-1.53,11.51-5.4,15.92
				c-3.87,4.41-9.22,7.05-15.07,7.44C200.03,411.43,199.54,411.44,199.06,411.44z M199.1,369.93c-0.44,0-0.87,0.01-1.31,0.04
				c-10.75,0.71-18.92,10.03-18.22,20.79c0.71,10.75,10.03,18.91,20.78,18.22c5.21-0.34,9.97-2.69,13.41-6.62
				c3.44-3.93,5.15-8.96,4.8-14.17l0,0c-0.34-5.21-2.69-9.97-6.62-13.41C208.36,371.63,203.83,369.93,199.1,369.93z"/>
		</g>
		<g style="clip-path:url(#SVGID_00000039815356517266402390000012217444652734313353_);">
			<path class="st22" d="M199.05,421.07c-16.48,0-30.41-12.84-31.51-29.52c-1.14-17.38,12.07-32.46,29.45-33.6
				c8.42-0.55,16.55,2.2,22.9,7.77c6.35,5.56,10.15,13.26,10.7,21.69c1.14,17.38-12.07,32.46-29.45,33.6
				C200.44,421.05,199.74,421.07,199.05,421.07z M199.11,360.3c-0.65,0-1.3,0.02-1.96,0.07c-16.05,1.06-28.25,14.98-27.2,31.03
				s14.99,28.25,31.03,27.2c16.05-1.06,28.25-14.98,27.2-31.03c-0.51-7.78-4.02-14.89-9.88-20.02
				C212.93,362.83,206.18,360.3,199.11,360.3z"/>
		</g>
	</g>
	<g>
		<path class="st30" d="M164.48,262.65c-0.52,0-0.98-0.37-1.08-0.9c-0.11-0.6,0.29-1.17,0.89-1.27l4.56-0.81
			c0.63-0.11,1.09-0.66,1.09-1.29c-0.01-3.44-0.4-10.02-2.92-15.35c-0.26-0.55-0.02-1.2,0.52-1.46c0.55-0.26,1.2-0.02,1.46,0.52
			c2.7,5.72,3.12,12.65,3.13,16.28c0,1.7-1.21,3.16-2.9,3.46l-4.56,0.81C164.61,262.64,164.55,262.65,164.48,262.65z"/>
	</g>
	<g>
		<path class="st13" d="M156.2,238.3c2.5-0.97,6.1-1.09,8.08-0.62c0.51,0.12,0.84,0.59,0.79,1.11l-0.05,0.55
			c-0.06,0.62-0.65,1.05-1.25,0.91c-1.45-0.34-4.11-0.72-6.94,0.02c-0.54,0.14-1.1-0.19-1.25-0.73v0
			C155.44,239.03,155.71,238.49,156.2,238.3z"/>
	</g>
	<g>
		<path class="st13" d="M171.04,238.98c2.05-0.01,4.53,1.01,5.7,2c0.3,0.25,0.35,0.74,0.13,1.14l-0.24,0.43
			c-0.27,0.48-0.82,0.65-1.18,0.35c-0.86-0.72-2.52-1.85-4.71-2.13c-0.42-0.05-0.68-0.49-0.58-0.97l0,0
			C170.25,239.33,170.63,238.98,171.04,238.98z"/>
	</g>
	<g>
		
			<ellipse transform="matrix(0.0757 -0.9971 0.9971 0.0757 -96.5177 387.7528)" class="st16" cx="160.9" cy="245.94" rx="2.87" ry="2.2"/>
	</g>
	<g>
		<ellipse class="st15" cx="162.46" cy="245.46" rx="1.45" ry="1.4"/>
	</g>
	<g>
		
			<ellipse transform="matrix(0.0757 -0.9971 0.9971 0.0757 -86.1531 402.0624)" class="st16" cx="173.8" cy="247.5" rx="2.01" ry="1.55"/>
	</g>
	<g>
		<ellipse class="st15" cx="174.89" cy="247.16" rx="1.02" ry="0.98"/>
	</g>
	<g>
		<path class="st31" d="M164.69,267.82c-8.29,0-12.15-4.61-13-9.06c-0.11-0.59,0.28-1.17,0.87-1.28c0.6-0.11,1.17,0.28,1.28,0.87
			c0.92,4.82,5.31,7.55,11.75,7.26c0.62-0.02,1.12,0.44,1.14,1.05c0.03,0.6-0.44,1.12-1.05,1.14
			C165.35,267.82,165.02,267.82,164.69,267.82z"/>
	</g>
	<g>
		<path class="st30" d="M152.33,280.56c-0.15,0-0.29-0.03-0.44-0.09c-6.59-2.87-11.84-6.91-13.37-10.3c-0.25-0.55,0-1.2,0.55-1.45
			c0.55-0.25,1.2,0,1.45,0.55c1.3,2.88,6.22,6.57,12.25,9.19c0.56,0.24,0.81,0.89,0.57,1.44
			C153.16,280.31,152.75,280.56,152.33,280.56z"/>
	</g>
	<g>
		<path class="st32" d="M202.44,341.41c0,0-0.01,0-0.01,0c-0.61-0.01-1.09-0.5-1.08-1.11c0.02-1.55,0.01-3.86,0.01-5.6
			c-1.06,1.04-2.41,2.55-3.55,4.37c-0.32,0.51-1,0.67-1.51,0.35c-0.51-0.32-0.67-1-0.35-1.51c2.44-3.91,5.7-6.41,5.83-6.51
			c0.33-0.25,0.78-0.3,1.15-0.11c0.37,0.18,0.61,0.56,0.61,0.98c0,0,0.03,5.26,0,8.07C203.53,340.93,203.04,341.41,202.44,341.41z"
			/>
	</g>
	<g>
		<path class="st32" d="M228.39,348c-0.12,0-0.24-0.02-0.35-0.06c-0.57-0.19-0.88-0.82-0.68-1.39c0.46-1.34,0.86-2.37,1.18-3.19
			c0.9-2.31,0.86-2.36,0.36-2.94c-0.39-0.46-0.34-1.15,0.13-1.55c0.46-0.39,1.15-0.34,1.55,0.13c1.38,1.63,0.92,2.81,0.01,5.16
			c-0.31,0.8-0.7,1.8-1.15,3.1C229.27,347.71,228.85,348,228.39,348z"/>
	</g>
	<g>
		<path class="st32" d="M233.81,348.97c-0.21,0-0.41-0.06-0.6-0.18c-0.51-0.33-0.65-1.01-0.31-1.52c1.18-1.81,0.94-3.77-0.78-6.35
			c-0.34-0.5-0.2-1.18,0.3-1.52c0.5-0.34,1.18-0.2,1.52,0.3c0.82,1.22,3.3,4.95,0.79,8.77C234.52,348.8,234.17,348.97,233.81,348.97
			z"/>
	</g>
	<g>
		<path class="st32" d="M146.9,383.25c-0.31,0-0.61-0.13-0.83-0.38c-0.4-0.46-0.35-1.15,0.11-1.55c2.22-1.92,2.79-3.19,2.92-9.07
			c0.01-0.6,0.46-1.08,1.12-1.07c0.6,0.01,1.09,0.51,1.07,1.12c-0.12,5.83-0.64,8.06-3.67,10.69
			C147.41,383.16,147.16,383.25,146.9,383.25z"/>
	</g>
	<g>
		<path class="st32" d="M126.27,369.22c-0.03,0-0.06,0-0.1,0c-0.6-0.05-1.05-0.58-1-1.19c0-0.04,0.39-4.49,1.24-10.79
			c0.08-0.6,0.62-1.02,1.23-0.94c0.6,0.08,1.02,0.63,0.94,1.23c-0.84,6.24-1.23,10.64-1.23,10.68
			C127.31,368.79,126.83,369.22,126.27,369.22z"/>
	</g>
	<g>
		<path class="st32" d="M119.45,366.3c-0.45,0-0.87-0.28-1.03-0.72c-0.21-0.57,0.08-1.2,0.65-1.41c4.31-1.58,5.01-8.28,5.02-8.35
			c0.06-0.6,0.6-1.04,1.2-0.98c0.6,0.06,1.04,0.6,0.98,1.2c-0.03,0.33-0.86,8.15-6.45,10.19
			C119.71,366.27,119.58,366.3,119.45,366.3z"/>
	</g>
	<g>
		<path class="st33" d="M129.98,489.38c-0.03,0-0.07,0-0.1,0c-6.86-0.64-9.77-7.83-9.89-8.14c-0.11-0.28-0.1-0.6,0.03-0.87
			c0.13-0.27,0.38-0.48,0.67-0.57c0.15-0.05,3.69-1.05,11.13,1.26c0.57,0.18,0.89,0.79,0.72,1.36c-0.18,0.57-0.79,0.89-1.36,0.72
			c-4.2-1.3-7-1.46-8.51-1.41c1.07,1.86,3.48,5.11,7.41,5.48c0.6,0.06,1.04,0.59,0.98,1.19
			C131.01,488.96,130.53,489.38,129.98,489.38z"/>
	</g>
	<g>
		<path class="st33" d="M98.99,483.19c-0.27,0-0.55-0.1-0.76-0.31c-0.19-0.18-4.85-4.56-12.97-3.12c-0.59,0.11-1.16-0.29-1.26-0.88
			c-0.11-0.59,0.29-1.16,0.88-1.26c9.27-1.66,14.65,3.49,14.88,3.71c0.43,0.42,0.44,1.11,0.02,1.54
			C99.55,483.08,99.27,483.19,98.99,483.19z"/>
	</g>
	<g>
		<path class="st33" d="M96.59,485.92c-0.48,0-0.92-0.32-1.05-0.81c-0.35-1.29-2.22-1.38-5.26-1.38c-1.24,0-2.53,0-3.78-0.15
			c-0.6-0.07-1.02-0.61-0.95-1.21c0.07-0.6,0.61-1.01,1.21-0.95c1.12,0.14,2.34,0.14,3.52,0.14c3.22,0,6.56,0,7.36,2.99
			c0.16,0.58-0.19,1.18-0.77,1.34C96.78,485.91,96.69,485.92,96.59,485.92z"/>
	</g>
	<g>
		<path class="st33" d="M88.27,555.33c-2.21,0-5.94-0.67-12.43-2.6c-0.58-0.17-0.9-0.78-0.73-1.35c0.17-0.58,0.77-0.91,1.35-0.73
			c11.62,3.46,13.13,2.38,13.26,2.25c0.41-0.41,1.11-0.46,1.54-0.06c0.43,0.4,0.5,1.03,0.12,1.48
			C90.9,554.88,90.09,555.33,88.27,555.33z"/>
	</g>
	<g>
		<path class="st33" d="M83.99,560.54c-1.92,0-3.6-0.71-5.9-1.69c-0.7-0.3-1.48-0.63-2.35-0.98c-0.56-0.22-0.83-0.86-0.61-1.42
			c0.22-0.56,0.86-0.83,1.42-0.61c0.89,0.36,1.68,0.69,2.39,0.99c3.7,1.57,5.08,2.16,8.63,0.6c0.55-0.24,1.19,0.01,1.44,0.56
			c0.24,0.55-0.01,1.19-0.56,1.44C86.68,560.22,85.28,560.54,83.99,560.54z"/>
	</g>
	<g>
		<path class="st33" d="M125.27,541.94c-0.01,0-0.03,0-0.04,0c-1.04-0.04-10.21-0.52-12.9-4.17c-0.36-0.48-0.25-1.17,0.23-1.52
			c0.48-0.36,1.16-0.25,1.52,0.23c1.75,2.39,8.7,3.18,11.23,3.28c0.6,0.02,1.07,0.53,1.04,1.13
			C126.33,541.48,125.85,541.94,125.27,541.94z"/>
	</g>
	<g>
		<path class="st33" d="M119.61,546.75c-1.86,0-4.1-0.18-6.64-0.73c-0.59-0.13-0.96-0.71-0.83-1.29c0.13-0.59,0.71-0.96,1.29-0.83
			c6.93,1.5,11.44,0.05,11.49,0.03c0.57-0.19,1.19,0.12,1.38,0.69s-0.11,1.18-0.68,1.38C125.48,546.03,123.29,546.75,119.61,546.75z
			"/>
	</g>
	<g>
		<path class="st33" d="M81.34,421.33c-0.52,0-0.98-0.37-1.07-0.9c-0.1-0.59,0.29-1.16,0.88-1.26c2.37-0.42,5.53-2.26,10.99-12.77
			c0.28-0.53,0.94-0.74,1.47-0.46c0.53,0.28,0.74,0.94,0.46,1.47c-4.75,9.14-8.39,13.17-12.54,13.91
			C81.46,421.32,81.4,421.33,81.34,421.33z"/>
	</g>
	<g>
		<path class="st33" d="M98.99,427.65c-0.36,0-0.71-0.17-0.91-0.5c-0.33-0.5-0.18-1.18,0.32-1.51c8.85-5.75,31.81-12.82,32.78-13.11
			c0.58-0.18,1.18,0.15,1.36,0.72c0.18,0.58-0.15,1.18-0.72,1.36c-0.24,0.07-23.64,7.28-32.23,12.86
			C99.4,427.59,99.19,427.65,98.99,427.65z"/>
	</g>
	<g>
		<path class="st33" d="M109.45,429.96c-0.31,0-0.62-0.13-0.83-0.39c-0.39-0.46-0.33-1.15,0.13-1.53c5.9-4.97,18.56-9.59,19.09-9.78
			c0.56-0.21,1.19,0.09,1.39,0.65c0.2,0.57-0.09,1.19-0.65,1.39c-0.13,0.05-12.83,4.68-18.43,9.4
			C109.95,429.87,109.7,429.96,109.45,429.96z"/>
	</g>
	<g>
		<path class="st33" d="M115.65,444.91c-0.08,0-0.15-0.01-0.23-0.02c-0.59-0.13-0.96-0.71-0.83-1.29c2.11-9.8,2.01-16.95,2.01-17.02
			c-0.01-0.6,0.47-1.1,1.07-1.11c0.61,0.03,1.1,0.47,1.11,1.07c0.01,0.3,0.12,7.46-2.06,17.52
			C116.6,444.56,116.15,444.91,115.65,444.91z"/>
	</g>
</g>
</svg>
