<?xml version="1.0" encoding="utf-8"?>
<!-- Generator: Adobe Illustrator 27.9.4, SVG Export Plug-In . SVG Version: 9.03 Build 54784)  -->
<svg version="1.1" xmlns="http://www.w3.org/2000/svg" xmlns:xlink="http://www.w3.org/1999/xlink" x="0px" y="0px"
	 viewBox="0 0 943.07 442.79" style="enable-background:new 0 0 943.07 442.79;" xml:space="preserve">
<style type="text/css">
	.st0{display:none;}
	.st1{display:inline;opacity:0.2;fill:#1D1D1B;}
	.st2{display:inline;}
	.st3{fill:#004364;}
	.st4{fill:#6FAA27;}
	.st5{clip-path:url(#SVGID_00000130631114075414050470000003705518673644232361_);}
	.st6{fill:url(#SVGID_00000151541483232642252210000002789529553342322584_);}
	.st7{fill:url(#SVGID_00000026149814523065118230000013714686734742341024_);}
	.st8{fill:url(#SVGID_00000050644642530017544550000015860691463265288324_);}
	.st9{fill:url(#SVGID_00000107558168382871590010000004436441427923989640_);}
	.st10{clip-path:url(#SVGID_00000040569442812832965270000007239688206196095364_);}
	.st11{fill:url(#SVGID_00000100376373509245500640000004643524722252504482_);}
	.st12{fill:url(#SVGID_00000132777958437151014270000003670431010512744340_);}
	.st13{fill:url(#SVGID_00000137099792277605965460000013936456152702179252_);}
	.st14{fill:url(#SVGID_00000150797553866749994210000001495380310870705042_);}
	.st15{filter:url(#Adobe_OpacityMaskFilter);}
	.st16{fill:url(#SVGID_00000158716696051400184310000017669779352964981683_);}
	.st17{opacity:0.4;mask:url(#SVGID_00000049195807990614284020000008013417145139372714_);fill:#1D1D1B;}
	.st18{clip-path:url(#SVGID_00000116939335881560800080000017544463390766156712_);}
	.st19{fill:url(#SVGID_00000163758283164355249800000016819844025136294790_);}
	.st20{fill:url(#SVGID_00000149346744264902555750000013021180464797641131_);}
	.st21{fill:url(#SVGID_00000178184251846460030660000011770209356073165713_);}
	.st22{fill:url(#SVGID_00000153676835530580848860000018443933932389595787_);}
	.st23{clip-path:url(#SVGID_00000007410926409568416790000004953972467107999917_);}
	.st24{fill:url(#SVGID_00000020359287807312056660000003775970854686612356_);}
	.st25{fill:url(#SVGID_00000117673052408054190850000011953796023801565095_);}
	.st26{fill:url(#SVGID_00000026161604337546517750000013213258458826831540_);}
	.st27{fill:url(#SVGID_00000033331472744330191340000006944291031737637805_);}
	.st28{fill:#4B4B4B;}
	.st29{fill:#9B9B9B;}
	.st30{clip-path:url(#SVGID_00000092435402303371076580000017679887074286515360_);}
	.st31{clip-path:url(#SVGID_00000016049844283462265150000015923440059220145592_);}
	.st32{clip-path:url(#SVGID_00000103246158701034744860000017452893978742040762_);}
	.st33{fill:#FFFFFF;}
	.st34{clip-path:url(#SVGID_00000082326516472709013390000017981263234253385131_);}
	.st35{clip-path:url(#SVGID_00000095301076168364109610000012197729026717733781_);}
	.st36{fill:#004664;}
	.st37{clip-path:url(#SVGID_00000047044394376288907630000006994796997891868818_);}
	.st38{clip-path:url(#SVGID_00000102543756129959585290000013816947827258815405_);}
	.st39{fill:#82AA37;}
	.st40{clip-path:url(#SVGID_00000016034350428548850670000000157678450025677986_);}
	.st41{display:inline;fill:#82AA37;}
</style>
<g id="Marges" class="st0">
	<path class="st1" d="M482.97-0.01h-25.9l-49.75,117.2h27.26l12.4-30.46h45.77l12.73,30.46h28.3L482.97-0.01z M456.55,63.26
		l13.01-31.96l13.39,31.96H456.55z"/>
	<path class="st1" d="M0,208.98v25.9l117.2,49.75v-27.26l-30.46-12.4v-45.77l30.46-12.73v-28.3L0,208.98z M63.26,235.4L31.3,222.39
		L63.26,209V235.4z"/>
	<path class="st1" d="M825.87,209.79v25.9l117.2,49.75v-27.26l-30.46-12.4V200l30.46-12.73v-28.3L825.87,209.79z M889.14,236.21
		l-31.96-13.01l31.96-13.39L889.14,236.21z"/>
	<path class="st1" d="M483.78,326.06h-25.9l-49.75,117.2h27.26l12.4-30.46h45.77l12.73,30.46h28.3L483.78,326.06z M457.36,389.33
		l13.01-31.96l13.39,31.96H457.36z"/>
</g>
<g id="Repères" class="st0">
</g>
<g id="Logo_Couleurs_CMJN" class="st0">
	<g class="st2">
		<g>
			<path class="st3" d="M421.03,143.77h-25.9l-49.75,117.2h27.26l12.4-30.46h45.77l12.73,30.46h28.3L421.03,143.77z M394.61,207.03
				l13.01-31.96l13.39,31.96H394.61z"/>
			<path class="st3" d="M504.97,260.97h-26.75V143.2h55.35c30.45,0,49.29,13.46,49.29,37.52v6.06c0,15.14-9.76,27.59-27.93,32.3
				l32.81,41.89h-34.15l-31.97-41.89v-17.5h11.95c14.64,0,22.54-5.22,22.54-16.66v-2.19c0-11.44-7.91-16.32-22.54-16.32h-28.6
				V260.97z"/>
			<path class="st3" d="M595.81,143.2h54.01c30.79,0,47.44,11.44,47.44,33.14v3.87c0,6.56-4.88,16.32-14.64,20.86
				c9.93,3.03,17.83,12.11,17.83,22.71v5.89c0,18.17-14.3,31.29-45.26,31.29h-59.39V143.2z M654.86,192.16
				c9.42,0,15.48-3.87,15.48-12.45v-1.35c0-9.09-6.23-12.28-20.02-12.28h-27.76v26.08H654.86z M654.69,238.26
				c13.29,0,19.01-4.21,19.01-10.26v-3.87c0-6.73-5.89-10.94-16.82-10.94h-34.32v25.07H654.69z"/>
			<path class="st3" d="M775.05,143.77h-25.9l-49.75,117.2h27.26l12.4-30.46h45.77l12.73,30.46h28.3L775.05,143.77z M748.63,207.03
				l13.01-31.96l13.39,31.96H748.63z"/>
		</g>
		<g>
			<path class="st3" d="M356.18,314.49c-3.21,0-5.64-1.08-7.65-3.09c-2.9-2.9-2.78-6.76-2.78-10.89c0-4.13-0.12-8,2.78-10.89
				c2.01-2.01,4.44-3.09,7.65-3.09c5.22,0,9.43,2.9,10.43,8.96h-6.88c-0.43-1.55-1.28-2.94-3.52-2.94c-1.24,0-2.16,0.5-2.66,1.16
				c-0.62,0.81-1.04,1.78-1.04,6.8c0,5.02,0.43,5.99,1.04,6.8c0.5,0.66,1.43,1.16,2.66,1.16c2.24,0,3.09-1.39,3.52-2.94h6.88
				C365.6,311.6,361.39,314.49,356.18,314.49z"/>
			<path class="st3" d="M386.84,311.4c-2.01,2.01-4.33,3.09-7.69,3.09s-5.68-1.08-7.69-3.09c-2.9-2.9-2.78-6.76-2.78-10.89
				c0-4.13-0.12-8,2.78-10.89c2.01-2.01,4.33-3.09,7.69-3.09s5.68,1.08,7.69,3.09c2.9,2.9,2.78,6.76,2.78,10.89
				C389.62,304.64,389.73,308.51,386.84,311.4z M381.85,293.75c-0.5-0.66-1.47-1.2-2.7-1.2s-2.2,0.54-2.7,1.2
				c-0.62,0.81-1,1.74-1,6.76c0,5.02,0.39,5.91,1,6.72c0.5,0.66,1.47,1.24,2.7,1.24s2.2-0.58,2.7-1.24c0.62-0.81,1-1.7,1-6.72
				C382.86,295.49,382.47,294.56,381.85,293.75z"/>
			<path class="st3" d="M410.58,311.4c-2.01,2.01-4.33,3.09-7.69,3.09c-3.36,0-5.68-1.08-7.69-3.09c-2.9-2.9-2.78-6.76-2.78-10.89
				c0-4.13-0.12-8,2.78-10.89c2.01-2.01,4.33-3.09,7.69-3.09c3.36,0,5.68,1.08,7.69,3.09c2.9,2.9,2.78,6.76,2.78,10.89
				C413.36,304.64,413.48,308.51,410.58,311.4z M405.6,293.75c-0.5-0.66-1.47-1.2-2.7-1.2s-2.2,0.54-2.7,1.2
				c-0.62,0.81-1,1.74-1,6.76c0,5.02,0.39,5.91,1,6.72c0.5,0.66,1.47,1.24,2.7,1.24s2.2-0.58,2.7-1.24c0.62-0.81,1-1.7,1-6.72
				C406.6,295.49,406.22,294.56,405.6,293.75z"/>
			<path class="st3" d="M427.76,304.45h-4.13v9.81h-6.76v-27.5h10.89c6.1,0,9.39,4.33,9.39,8.85
				C437.15,300.12,433.86,304.45,427.76,304.45z M427.45,292.82h-3.82v5.56h3.82c1.85,0,2.94-1.35,2.94-2.78
				S429.31,292.82,427.45,292.82z"/>
			<path class="st3" d="M439.53,314.26v-27.5h18.7v6.03h-11.94v4.6h10.2v6.03h-10.2v4.83h11.94v6.03H439.53z M450.23,284.05h-3.82
				l1.89-6.95h6.49L450.23,284.05z"/>
			<path class="st3" d="M476.33,314.26l-4.87-10.24h-2.28v10.24h-6.76v-27.5h10.89c6.1,0,9.39,4.33,9.39,8.85
				c0,3.75-2.32,6.1-4.48,7.19l5.95,11.47H476.33z M473.01,292.82h-3.82v5.56h3.82c1.85,0,2.94-1.35,2.94-2.78
				S474.87,292.82,473.01,292.82z"/>
			<path class="st3" d="M502.4,314.26l-1.28-4.1h-8.46l-1.35,4.1h-7.07l10.01-27.5h5.22l10.01,27.5H502.4z M497.03,297.19
				l-2.47,7.34h4.79L497.03,297.19z"/>
			<path class="st3" d="M519.69,292.78v21.48h-6.76v-21.48h-6.76v-6.03h20.28v6.03H519.69z"/>
			<path class="st3" d="M529.41,314.26v-27.5h6.76v27.5H529.41z"/>
			<path class="st3" d="M552.47,314.26h-5.02l-9.08-27.5h6.99l4.64,15.37l4.56-15.37h7.03L552.47,314.26z"/>
			<path class="st3" d="M563.77,314.26v-27.5h18.7v6.03h-11.94v4.6h10.2v6.03h-10.2v4.83h11.94v6.03H563.77z"/>
			<path class="st4" d="M611.93,311.4c-2.01,2.01-4.33,3.09-7.69,3.09s-5.68-1.08-7.69-3.09c-2.9-2.9-2.78-6.76-2.78-10.89
				c0-4.13-0.12-8,2.78-10.89c2.01-2.01,4.33-3.09,7.69-3.09s5.68,1.08,7.69,3.09c2.9,2.9,2.78,6.76,2.78,10.89
				C614.71,304.64,614.83,308.51,611.93,311.4z M606.95,293.75c-0.5-0.66-1.47-1.2-2.7-1.2c-1.24,0-2.2,0.54-2.7,1.2
				c-0.62,0.81-1,1.74-1,6.76c0,5.02,0.39,5.91,1,6.72c0.5,0.66,1.47,1.24,2.7,1.24c1.24,0,2.2-0.58,2.7-1.24
				c0.62-0.81,1-1.7,1-6.72C607.95,295.49,607.56,294.56,606.95,293.75z"/>
			<path class="st4" d="M632.12,314.26l-4.87-10.24h-2.28v10.24h-6.76v-27.5h10.89c6.1,0,9.39,4.33,9.39,8.85
				c0,3.75-2.32,6.1-4.48,7.19l5.95,11.47H632.12z M628.8,292.82h-3.82v5.56h3.82c1.85,0,2.94-1.35,2.94-2.78
				S630.65,292.82,628.8,292.82z"/>
			<path class="st4" d="M651.58,314.49c-3.21,0-5.64-1.08-7.65-3.09c-2.9-2.9-2.78-6.76-2.78-10.89c0-4.13-0.12-8,2.78-10.89
				c2.01-2.01,4.44-3.09,7.65-3.09c5.22,0,9.43,2.9,10.43,8.96h-6.88c-0.43-1.55-1.28-2.94-3.52-2.94c-1.24,0-2.16,0.5-2.66,1.16
				c-0.62,0.81-1.04,1.78-1.04,6.8c0,5.02,0.43,5.99,1.04,6.8c0.5,0.66,1.43,1.16,2.66,1.16c2.24,0,3.09-1.39,3.52-2.94h6.88
				C661,311.6,656.79,314.49,651.58,314.49z"/>
			<path class="st4" d="M679.96,314.26l-1.28-4.1h-8.46l-1.35,4.1h-7.07l10.01-27.5h5.22l10.01,27.5H679.96z M674.59,297.19
				l-2.47,7.34h4.79L674.59,297.19z"/>
			<path class="st4" d="M701.19,314.26h-11.98v-27.5h11.4c5.72,0,8.77,3.21,8.77,7.96c0,3.13-2.16,4.87-3.01,5.45
				c1.12,0.69,3.4,2.12,3.4,5.99C709.77,311.4,706.1,314.26,701.19,314.26z M700.19,292.82h-4.21v4.48h4.21
				c1.85,0,2.43-1.16,2.43-2.24C702.62,293.98,702.04,292.82,700.19,292.82z M700.53,303.37h-4.56v4.83h4.56
				c1.85,0,2.47-1.28,2.47-2.43C703.01,304.6,702.39,303.37,700.53,303.37z"/>
		</g>
		<g>
			<g>
				<defs>
					<path id="SVGID_1_" d="M121.66,217.74c-12.36,29.93,1.87,64.21,31.8,76.58l65.39,27.02c29.93,12.36,64.21-1.87,76.58-31.8
						l26.72-64.66c12.37-29.93-1.87-64.21-31.8-76.58l-65.39-27.02c-29.93-12.37-64.21,1.87-76.58,31.8L121.66,217.74z"/>
				</defs>
				<clipPath id="SVGID_00000044146639000755287590000008508653954321807760_">
					<use xlink:href="#SVGID_1_"  style="overflow:visible;"/>
				</clipPath>
				<g style="clip-path:url(#SVGID_00000044146639000755287590000008508653954321807760_);">
					
						<linearGradient id="SVGID_00000096739415564078062270000011310123522978688164_" gradientUnits="userSpaceOnUse" x1="208.7541" y1="107.0673" x2="321.1038" y2="219.417">
						<stop  offset="0" style="stop-color:#006994"/>
						<stop  offset="0.75" style="stop-color:#004364"/>
						<stop  offset="1" style="stop-color:#1C123E"/>
					</linearGradient>
					<path style="fill:url(#SVGID_00000096739415564078062270000011310123522978688164_);" d="M288.3,226.95
						c2,6.29,3.69,12.57,5.15,18.82c15.5-12.79,28.32-27.16,37.85-42.38c0.95-24.9-13.45-48.89-37.82-58.96l-68.3-28.22
						c-6.86-2.84-13.95-4.33-20.96-4.61C240.35,134.16,271.81,175.15,288.3,226.95z"/>
				</g>
				<g style="clip-path:url(#SVGID_00000044146639000755287590000008508653954321807760_);">
					
						<linearGradient id="SVGID_00000047743769236788401590000014402533920406082208_" gradientUnits="userSpaceOnUse" x1="95.7045" y1="198.0842" x2="241.8236" y2="137.7091">
						<stop  offset="0" style="stop-color:#86BD34"/>
						<stop  offset="0.5" style="stop-color:#76B82A"/>
						<stop  offset="1" style="stop-color:#357E29"/>
					</linearGradient>
					<path style="fill:url(#SVGID_00000047743769236788401590000014402533920406082208_);" d="M204.29,111.65
						c-24.9-0.96-48.89,13.45-58.96,37.82l-28.22,68.3c-2.84,6.86-4.33,13.95-4.61,20.96c22.56-36.13,63.55-67.6,115.34-84.08
						c6.29-2,12.58-3.7,18.85-5.16C233.9,134,219.52,121.17,204.29,111.65z"/>
				</g>
				<g style="clip-path:url(#SVGID_00000044146639000755287590000008508653954321807760_);">
					
						<linearGradient id="SVGID_00000021804472763351792820000016557260023409724853_" gradientUnits="userSpaceOnUse" x1="122.7834" y1="222.5775" x2="235.1335" y2="334.9275">
						<stop  offset="0" style="stop-color:#1C123E"/>
						<stop  offset="0.25" style="stop-color:#004364"/>
						<stop  offset="1" style="stop-color:#006994"/>
					</linearGradient>
					<path style="fill:url(#SVGID_00000021804472763351792820000016557260023409724853_);" d="M155.59,215.05
						c-2-6.29-3.69-12.57-5.15-18.82c-15.5,12.79-28.32,27.16-37.85,42.38c-0.95,24.9,13.45,48.89,37.82,58.96l68.3,28.22
						c6.87,2.84,13.95,4.33,20.96,4.61C203.54,307.83,172.07,266.84,155.59,215.05z"/>
				</g>
				<g style="clip-path:url(#SVGID_00000044146639000755287590000008508653954321807760_);">
					
						<linearGradient id="SVGID_00000053502909738510302900000004232716370343192495_" gradientUnits="userSpaceOnUse" x1="202.0641" y1="304.2858" x2="348.1831" y2="243.9106">
						<stop  offset="0" style="stop-color:#357E29"/>
						<stop  offset="0.5" style="stop-color:#76B82A"/>
						<stop  offset="1" style="stop-color:#86BD34"/>
					</linearGradient>
					<path style="fill:url(#SVGID_00000053502909738510302900000004232716370343192495_);" d="M216.04,287.34
						c-6.29,2-12.58,3.7-18.85,5.16c12.8,15.5,27.17,28.32,42.4,37.84c24.9,0.96,48.89-13.45,58.96-37.82l28.22-68.3
						c2.84-6.86,4.33-13.95,4.61-20.96C308.83,239.39,267.84,270.85,216.04,287.34z"/>
				</g>
			</g>
			<g>
				<defs>
					<path id="SVGID_00000076577210018472689930000016943061741241368765_" d="M220.32,265.7c13.26,5.48,28.44-0.83,33.92-14.09
						l11.97-28.96c5.48-13.25-0.83-28.44-14.09-33.92l-28.64-11.84c-13.26-5.48-28.44,0.83-33.92,14.09l-11.97,28.96
						c-5.48,13.25,0.83,28.44,14.08,33.92L220.32,265.7z"/>
				</defs>
				<clipPath id="SVGID_00000152979690248284752240000015105194695386918040_">
					<use xlink:href="#SVGID_00000076577210018472689930000016943061741241368765_"  style="overflow:visible;"/>
				</clipPath>
				<g style="clip-path:url(#SVGID_00000152979690248284752240000015105194695386918040_);">
					
						<linearGradient id="SVGID_00000104699763240757218590000002873162804752802689_" gradientUnits="userSpaceOnUse" x1="447.1713" y1="360.4573" x2="496.9339" y2="410.22" gradientTransform="matrix(0 -1 1 0 -189.1543 674.2949)">
						<stop  offset="0" style="stop-color:#006994"/>
						<stop  offset="0.75" style="stop-color:#004364"/>
						<stop  offset="1" style="stop-color:#1C123E"/>
					</linearGradient>
					<path style="fill:url(#SVGID_00000104699763240757218590000002873162804752802689_);" d="M224.4,191.89
						c2.78-0.89,5.57-1.64,8.34-2.28c-5.66-6.86-12.03-12.54-18.77-16.76c-11.03-0.43-21.65,5.96-26.12,16.75l-12.5,30.25
						c-1.25,3.04-1.92,6.18-2.04,9.28C183.3,213.13,201.46,199.2,224.4,191.89z"/>
				</g>
				<g style="clip-path:url(#SVGID_00000152979690248284752240000015105194695386918040_);">
					
						<linearGradient id="SVGID_00000145059220345157336700000003563531943475185319_" gradientUnits="userSpaceOnUse" x1="397.0962" y1="400.7724" x2="461.8197" y2="374.0292" gradientTransform="matrix(0 -1 1 0 -189.1543 674.2949)">
						<stop  offset="0" style="stop-color:#86BD34"/>
						<stop  offset="0.5" style="stop-color:#76B82A"/>
						<stop  offset="1" style="stop-color:#357E29"/>
					</linearGradient>
					<path style="fill:url(#SVGID_00000145059220345157336700000003563531943475185319_);" d="M173.33,229.1
						c-0.42,11.03,5.96,21.66,16.75,26.12l30.25,12.5c3.04,1.26,6.18,1.92,9.29,2.04c-16.01-9.99-29.94-28.15-37.24-51.09
						c-0.89-2.78-1.64-5.57-2.29-8.35C183.23,215.99,177.55,222.36,173.33,229.1z"/>
				</g>
				<g style="clip-path:url(#SVGID_00000152979690248284752240000015105194695386918040_);">
					
						<linearGradient id="SVGID_00000183941830396705906470000002530376781512871552_" gradientUnits="userSpaceOnUse" x1="409.0918" y1="411.6216" x2="458.8552" y2="461.3849" gradientTransform="matrix(0 -1 1 0 -189.1543 674.2949)">
						<stop  offset="0" style="stop-color:#1C123E"/>
						<stop  offset="0.25" style="stop-color:#004364"/>
						<stop  offset="1" style="stop-color:#006994"/>
					</linearGradient>
					<path style="fill:url(#SVGID_00000183941830396705906470000002530376781512871552_);" d="M219.13,250.67
						c-2.78,0.89-5.56,1.64-8.34,2.28c5.66,6.87,12.03,12.55,18.77,16.77c11.03,0.42,21.65-5.96,26.12-16.75l12.5-30.25
						c1.26-3.04,1.92-6.18,2.04-9.28C260.23,229.43,242.07,243.37,219.13,250.67z"/>
				</g>
				<g style="clip-path:url(#SVGID_00000152979690248284752240000015105194695386918040_);">
					
						<linearGradient id="SVGID_00000166676084318279373980000014899210302532236163_" gradientUnits="userSpaceOnUse" x1="444.2069" y1="447.8133" x2="508.9275" y2="421.0713" gradientTransform="matrix(0 -1 1 0 -189.1543 674.2949)">
						<stop  offset="0" style="stop-color:#357E29"/>
						<stop  offset="0.5" style="stop-color:#76B82A"/>
						<stop  offset="1" style="stop-color:#86BD34"/>
					</linearGradient>
					<path style="fill:url(#SVGID_00000166676084318279373980000014899210302532236163_);" d="M251.15,223.9
						c0.89,2.79,1.64,5.57,2.29,8.35c6.87-5.67,12.54-12.04,16.76-18.78c0.42-11.03-5.96-21.66-16.75-26.12l-30.25-12.5
						c-3.04-1.26-6.18-1.92-9.28-2.04C229.91,182.8,243.85,200.95,251.15,223.9z"/>
				</g>
			</g>
			<defs>
				<filter id="Adobe_OpacityMaskFilter" filterUnits="userSpaceOnUse" x="153.61" y="322.62" width="92.46" height="2.48">
					<feFlood  style="flood-color:white;flood-opacity:1" result="back"/>
					<feBlend  in="SourceGraphic" in2="back" mode="normal"/>
				</filter>
			</defs>
			
				<mask maskUnits="userSpaceOnUse" x="153.61" y="322.62" width="92.46" height="2.48" id="SVGID_00000093136275121030176970000010873285056143510713_">
				<g class="st15">
					
						<linearGradient id="SVGID_00000050633699285657980100000016913654725786085561_" gradientUnits="userSpaceOnUse" x1="153.6075" y1="323.8644" x2="246.0686" y2="323.8644">
						<stop  offset="0" style="stop-color:#000000"/>
						<stop  offset="1" style="stop-color:#FFFFFF"/>
					</linearGradient>
					<path style="fill:url(#SVGID_00000050633699285657980100000016913654725786085561_);" d="M246.07,323.86
						c0,0.69-20.7,1.24-46.23,1.24s-46.23-0.55-46.23-1.24c0-0.69,20.7-1.24,46.23-1.24S246.07,323.18,246.07,323.86z"/>
				</g>
			</mask>
			<path style="opacity:0.4;mask:url(#SVGID_00000093136275121030176970000010873285056143510713_);fill:#1D1D1B;" d="
				M246.07,323.86c0,0.69-20.7,1.24-46.23,1.24s-46.23-0.55-46.23-1.24c0-0.69,20.7-1.24,46.23-1.24S246.07,323.18,246.07,323.86z"
				/>
		</g>
	</g>
</g>
<g id="Logo_Gris_CMJN" class="st0">
	<g class="st2">
		<g>
			<defs>
				<path id="SVGID_17_" d="M121.68,217.73c-12.36,29.92,1.87,64.2,31.8,76.57l65.38,27.01c29.92,12.36,64.21-1.87,76.57-31.8
					l26.72-64.66c12.37-29.92-1.87-64.2-31.79-76.57l-65.38-27.01c-29.93-12.37-64.21,1.87-76.57,31.8L121.68,217.73z"/>
			</defs>
			<clipPath id="SVGID_00000078046199676974823680000001467186980297140626_">
				<use xlink:href="#SVGID_17_"  style="overflow:visible;"/>
			</clipPath>
			<g style="clip-path:url(#SVGID_00000078046199676974823680000001467186980297140626_);">
				
					<linearGradient id="SVGID_00000003797984900427325730000001878476829416409241_" gradientUnits="userSpaceOnUse" x1="208.7636" y1="107.0681" x2="321.1042" y2="219.4088">
					<stop  offset="0" style="stop-color:#575756"/>
					<stop  offset="0.75" style="stop-color:#4A4A49"/>
					<stop  offset="1" style="stop-color:#2E2D2C"/>
				</linearGradient>
				<path style="fill:url(#SVGID_00000003797984900427325730000001878476829416409241_);" d="M288.3,226.94
					c2,6.29,3.69,12.57,5.15,18.82c15.5-12.79,28.32-27.16,37.85-42.38c0.95-24.9-13.45-48.88-37.82-58.95l-68.29-28.21
					c-6.86-2.84-13.95-4.33-20.96-4.61C240.36,134.16,271.82,175.15,288.3,226.94z"/>
			</g>
			<g style="clip-path:url(#SVGID_00000078046199676974823680000001467186980297140626_);">
				
					<linearGradient id="SVGID_00000052080323739470029660000011513178203767487923_" gradientUnits="userSpaceOnUse" x1="95.7231" y1="198.0777" x2="241.8304" y2="137.7074">
					<stop  offset="0" style="stop-color:#BDBCBC"/>
					<stop  offset="0.5" style="stop-color:#9D9D9C"/>
					<stop  offset="1" style="stop-color:#646363"/>
				</linearGradient>
				<path style="fill:url(#SVGID_00000052080323739470029660000011513178203767487923_);" d="M204.3,111.65
					c-24.9-0.96-48.89,13.45-58.96,37.82l-28.21,68.29c-2.84,6.86-4.33,13.95-4.61,20.96c22.55-36.13,63.54-67.59,115.33-84.07
					c6.29-2,12.58-3.7,18.85-5.16C233.91,134,219.53,121.17,204.3,111.65z"/>
			</g>
			<g style="clip-path:url(#SVGID_00000078046199676974823680000001467186980297140626_);">
				
					<linearGradient id="SVGID_00000182521986187182911300000015834686140008254651_" gradientUnits="userSpaceOnUse" x1="122.7999" y1="222.569" x2="235.1408" y2="334.9099">
					<stop  offset="0" style="stop-color:#2E2D2C"/>
					<stop  offset="0.25" style="stop-color:#4A4A49"/>
					<stop  offset="1" style="stop-color:#575756"/>
				</linearGradient>
				<path style="fill:url(#SVGID_00000182521986187182911300000015834686140008254651_);" d="M155.6,215.04
					c-2-6.29-3.69-12.57-5.15-18.82c-15.5,12.79-28.32,27.16-37.85,42.38c-0.95,24.9,13.45,48.88,37.82,58.95l68.29,28.21
					c6.86,2.84,13.95,4.33,20.96,4.61C203.55,307.82,172.09,266.83,155.6,215.04z"/>
			</g>
			<g style="clip-path:url(#SVGID_00000078046199676974823680000001467186980297140626_);">
				
					<linearGradient id="SVGID_00000062156655758855919700000008111758607111915685_" gradientUnits="userSpaceOnUse" x1="202.0741" y1="304.2707" x2="348.1814" y2="243.9003">
					<stop  offset="0" style="stop-color:#646363"/>
					<stop  offset="0.5" style="stop-color:#9D9D9C"/>
					<stop  offset="1" style="stop-color:#BDBCBC"/>
				</linearGradient>
				<path style="fill:url(#SVGID_00000062156655758855919700000008111758607111915685_);" d="M216.05,287.33
					c-6.29,2-12.58,3.7-18.85,5.16c12.79,15.5,27.17,28.32,42.4,37.84c24.9,0.96,48.89-13.45,58.96-37.82l28.21-68.29
					c2.84-6.86,4.33-13.95,4.61-20.96C308.83,239.38,267.84,270.84,216.05,287.33z"/>
			</g>
		</g>
		<g>
			<defs>
				<path id="SVGID_23_" d="M220.33,265.69c13.25,5.48,28.44-0.83,33.92-14.08l11.96-28.96c5.48-13.25-0.83-28.44-14.08-33.91
					l-28.64-11.84c-13.25-5.48-28.44,0.83-33.92,14.08l-11.96,28.96c-5.48,13.25,0.83,28.44,14.08,33.91L220.33,265.69z"/>
			</defs>
			<clipPath id="SVGID_00000182504450207450767280000005201554879072518311_">
				<use xlink:href="#SVGID_23_"  style="overflow:visible;"/>
			</clipPath>
			<g style="clip-path:url(#SVGID_00000182504450207450767280000005201554879072518311_);">
				
					<linearGradient id="SVGID_00000137814983635413101420000014388890339875237275_" gradientUnits="userSpaceOnUse" x1="447.1802" y1="360.4698" x2="496.9388" y2="410.2285" gradientTransform="matrix(0 -1 1 0 -189.1543 674.2949)">
					<stop  offset="0" style="stop-color:#575756"/>
					<stop  offset="0.75" style="stop-color:#4A4A49"/>
					<stop  offset="1" style="stop-color:#2E2D2C"/>
				</linearGradient>
				<path style="fill:url(#SVGID_00000137814983635413101420000014388890339875237275_);" d="M224.41,191.89
					c2.78-0.89,5.57-1.64,8.33-2.28c-5.66-6.86-12.03-12.54-18.77-16.76c-11.03-0.43-21.65,5.96-26.11,16.75l-12.5,30.25
					c-1.25,3.04-1.92,6.18-2.04,9.28C183.31,213.12,201.47,199.19,224.41,191.89z"/>
			</g>
			<g style="clip-path:url(#SVGID_00000182504450207450767280000005201554879072518311_);">
				
					<linearGradient id="SVGID_00000036964506654423924750000008469911739386581689_" gradientUnits="userSpaceOnUse" x1="397.1091" y1="400.7817" x2="461.8274" y2="374.0406" gradientTransform="matrix(0 -1 1 0 -189.1543 674.2949)">
					<stop  offset="0" style="stop-color:#BDBCBC"/>
					<stop  offset="0.5" style="stop-color:#9D9D9C"/>
					<stop  offset="1" style="stop-color:#646363"/>
				</linearGradient>
				<path style="fill:url(#SVGID_00000036964506654423924750000008469911739386581689_);" d="M173.34,229.09
					c-0.42,11.03,5.96,21.65,16.75,26.11l30.25,12.5c3.04,1.26,6.18,1.92,9.29,2.04c-16-9.99-29.94-28.15-37.24-51.09
					c-0.89-2.78-1.64-5.57-2.29-8.35C183.24,215.98,177.56,222.35,173.34,229.09z"/>
			</g>
			<g style="clip-path:url(#SVGID_00000182504450207450767280000005201554879072518311_);">
				
					<linearGradient id="SVGID_00000000202741989949361220000010198343058268795531_" gradientUnits="userSpaceOnUse" x1="409.1038" y1="411.63" x2="458.8631" y2="461.3893" gradientTransform="matrix(0 -1 1 0 -189.1543 674.2949)">
					<stop  offset="0" style="stop-color:#2E2D2C"/>
					<stop  offset="0.25" style="stop-color:#4A4A49"/>
					<stop  offset="1" style="stop-color:#575756"/>
				</linearGradient>
				<path style="fill:url(#SVGID_00000000202741989949361220000010198343058268795531_);" d="M219.14,250.66
					c-2.78,0.89-5.56,1.64-8.33,2.28c5.66,6.86,12.03,12.54,18.77,16.76c11.03,0.42,21.65-5.96,26.11-16.75l12.5-30.25
					c1.25-3.04,1.92-6.18,2.04-9.28C260.24,229.42,242.08,243.36,219.14,250.66z"/>
			</g>
			<g style="clip-path:url(#SVGID_00000182504450207450767280000005201554879072518311_);">
				
					<linearGradient id="SVGID_00000180328893543543241530000007557854456107759294_" gradientUnits="userSpaceOnUse" x1="444.2161" y1="447.8188" x2="508.9314" y2="421.0789" gradientTransform="matrix(0 -1 1 0 -189.1543 674.2949)">
					<stop  offset="0" style="stop-color:#646363"/>
					<stop  offset="0.5" style="stop-color:#9D9D9C"/>
					<stop  offset="1" style="stop-color:#BDBCBC"/>
				</linearGradient>
				<path style="fill:url(#SVGID_00000180328893543543241530000007557854456107759294_);" d="M251.16,223.89
					c0.89,2.79,1.64,5.57,2.29,8.35c6.86-5.67,12.54-12.04,16.76-18.78c0.42-11.03-5.96-21.65-16.75-26.12l-30.25-12.5
					c-3.04-1.26-6.18-1.92-9.28-2.04C229.92,182.79,243.86,200.95,251.16,223.89z"/>
			</g>
		</g>
	</g>
	<g class="st2">
		<path class="st28" d="M421.03,143.77h-25.89l-49.75,117.2h27.26l12.4-30.46h45.77l12.73,30.46h28.3L421.03,143.77z M394.61,207.03
			l13.01-31.96l13.39,31.96H394.61z"/>
		<path class="st28" d="M504.97,260.97h-26.75V143.2h55.35c30.45,0,49.29,13.46,49.29,37.52v6.06c0,15.14-9.76,27.59-27.93,32.3
			l32.81,41.89h-34.15l-31.97-41.89v-17.5h11.95c14.64,0,22.54-5.22,22.54-16.66v-2.19c0-11.44-7.91-16.32-22.54-16.32h-28.6V260.97
			z"/>
		<path class="st28" d="M595.81,143.2h54.01c30.79,0,47.44,11.44,47.44,33.14v3.87c0,6.56-4.88,16.32-14.64,20.86
			c9.93,3.03,17.83,12.11,17.83,22.71v5.89c0,18.17-14.3,31.29-45.26,31.29h-59.39V143.2z M654.86,192.16
			c9.42,0,15.48-3.87,15.48-12.45v-1.35c0-9.09-6.23-12.28-20.02-12.28h-27.76v26.08H654.86z M654.69,238.26
			c13.29,0,19.01-4.21,19.01-10.26v-3.87c0-6.73-5.89-10.94-16.82-10.94h-34.32v25.07H654.69z"/>
		<path class="st28" d="M775.05,143.77h-25.9l-49.75,117.2h27.26l12.4-30.46h45.77l12.73,30.46h28.3L775.05,143.77z M748.63,207.03
			l13.01-31.96l13.39,31.96H748.63z"/>
	</g>
	<g class="st2">
		<path class="st28" d="M356.18,314.49c-3.21,0-5.64-1.08-7.65-3.09c-2.9-2.9-2.78-6.76-2.78-10.89c0-4.13-0.12-8,2.78-10.89
			c2.01-2.01,4.44-3.09,7.65-3.09c5.22,0,9.43,2.9,10.43,8.96h-6.88c-0.43-1.55-1.28-2.94-3.52-2.94c-1.24,0-2.16,0.5-2.66,1.16
			c-0.62,0.81-1.04,1.78-1.04,6.8c0,5.02,0.43,5.99,1.04,6.8c0.5,0.66,1.43,1.16,2.66,1.16c2.24,0,3.09-1.39,3.52-2.94h6.88
			C365.6,311.6,361.39,314.49,356.18,314.49z"/>
		<path class="st28" d="M386.84,311.4c-2.01,2.01-4.33,3.09-7.69,3.09c-3.36,0-5.68-1.08-7.69-3.09c-2.9-2.9-2.78-6.76-2.78-10.89
			c0-4.13-0.12-8,2.78-10.89c2.01-2.01,4.33-3.09,7.69-3.09c3.36,0,5.68,1.08,7.69,3.09c2.9,2.9,2.78,6.76,2.78,10.89
			C389.62,304.64,389.73,308.51,386.84,311.4z M381.85,293.75c-0.5-0.66-1.47-1.2-2.7-1.2s-2.2,0.54-2.7,1.2
			c-0.62,0.81-1,1.74-1,6.76c0,5.02,0.39,5.91,1,6.72c0.5,0.66,1.47,1.24,2.7,1.24s2.2-0.58,2.7-1.24c0.62-0.81,1-1.7,1-6.72
			C382.86,295.49,382.47,294.56,381.85,293.75z"/>
		<path class="st28" d="M410.58,311.4c-2.01,2.01-4.33,3.09-7.69,3.09s-5.68-1.08-7.69-3.09c-2.9-2.9-2.78-6.76-2.78-10.89
			c0-4.13-0.12-8,2.78-10.89c2.01-2.01,4.33-3.09,7.69-3.09s5.68,1.08,7.69,3.09c2.9,2.9,2.78,6.76,2.78,10.89
			C413.36,304.64,413.48,308.51,410.58,311.4z M405.6,293.75c-0.5-0.66-1.47-1.2-2.7-1.2s-2.2,0.54-2.7,1.2
			c-0.62,0.81-1,1.74-1,6.76c0,5.02,0.39,5.91,1,6.72c0.5,0.66,1.47,1.24,2.7,1.24s2.2-0.58,2.7-1.24c0.62-0.81,1-1.7,1-6.72
			C406.6,295.49,406.22,294.56,405.6,293.75z"/>
		<path class="st28" d="M427.76,304.45h-4.13v9.81h-6.76v-27.5h10.89c6.1,0,9.39,4.33,9.39,8.85
			C437.15,300.12,433.86,304.45,427.76,304.45z M427.45,292.82h-3.82v5.56h3.82c1.85,0,2.94-1.35,2.94-2.78
			C430.39,294.17,429.31,292.82,427.45,292.82z"/>
		<path class="st28" d="M439.53,314.26v-27.5h18.7v6.03h-11.94v4.6h10.2v6.03h-10.2v4.83h11.94v6.03H439.53z M450.23,284.05h-3.82
			l1.89-6.95h6.49L450.23,284.05z"/>
		<path class="st28" d="M476.33,314.26l-4.87-10.24h-2.28v10.24h-6.76v-27.5h10.89c6.1,0,9.39,4.33,9.39,8.85
			c0,3.75-2.32,6.1-4.48,7.19l5.95,11.47H476.33z M473.01,292.82h-3.82v5.56h3.82c1.85,0,2.94-1.35,2.94-2.78
			C475.95,294.17,474.87,292.82,473.01,292.82z"/>
		<path class="st28" d="M502.39,314.26l-1.28-4.1h-8.46l-1.35,4.1h-7.07l10.01-27.5h5.22l10.01,27.5H502.39z M497.03,297.19
			l-2.47,7.34h4.79L497.03,297.19z"/>
		<path class="st28" d="M519.69,292.78v21.48h-6.76v-21.48h-6.76v-6.03h20.28v6.03H519.69z"/>
		<path class="st28" d="M529.41,314.26v-27.5h6.76v27.5H529.41z"/>
		<path class="st28" d="M552.47,314.26h-5.02l-9.08-27.5h6.99l4.64,15.37l4.56-15.37h7.03L552.47,314.26z"/>
		<path class="st28" d="M563.77,314.26v-27.5h18.7v6.03h-11.94v4.6h10.2v6.03h-10.2v4.83h11.94v6.03H563.77z"/>
		<path class="st29" d="M611.93,311.4c-2.01,2.01-4.33,3.09-7.69,3.09s-5.68-1.08-7.69-3.09c-2.9-2.9-2.78-6.76-2.78-10.89
			c0-4.13-0.12-8,2.78-10.89c2.01-2.01,4.33-3.09,7.69-3.09s5.68,1.08,7.69,3.09c2.9,2.9,2.78,6.76,2.78,10.89
			C614.71,304.64,614.83,308.51,611.93,311.4z M606.95,293.75c-0.5-0.66-1.47-1.2-2.7-1.2c-1.24,0-2.2,0.54-2.7,1.2
			c-0.62,0.81-1,1.74-1,6.76c0,5.02,0.39,5.91,1,6.72c0.5,0.66,1.47,1.24,2.7,1.24c1.24,0,2.2-0.58,2.7-1.24c0.62-0.81,1-1.7,1-6.72
			C607.95,295.49,607.56,294.56,606.95,293.75z"/>
		<path class="st29" d="M632.12,314.26l-4.87-10.24h-2.28v10.24h-6.76v-27.5h10.89c6.1,0,9.39,4.33,9.39,8.85
			c0,3.75-2.32,6.1-4.48,7.19l5.95,11.47H632.12z M628.8,292.82h-3.82v5.56h3.82c1.85,0,2.94-1.35,2.94-2.78
			C631.73,294.17,630.65,292.82,628.8,292.82z"/>
		<path class="st29" d="M651.58,314.49c-3.21,0-5.64-1.08-7.65-3.09c-2.9-2.9-2.78-6.76-2.78-10.89c0-4.13-0.12-8,2.78-10.89
			c2.01-2.01,4.44-3.09,7.65-3.09c5.22,0,9.43,2.9,10.43,8.96h-6.88c-0.43-1.55-1.28-2.94-3.52-2.94c-1.24,0-2.16,0.5-2.66,1.16
			c-0.62,0.81-1.04,1.78-1.04,6.8c0,5.02,0.43,5.99,1.04,6.8c0.5,0.66,1.43,1.16,2.66,1.16c2.24,0,3.09-1.39,3.52-2.94h6.88
			C661,311.6,656.79,314.49,651.58,314.49z"/>
		<path class="st29" d="M679.96,314.26l-1.28-4.1h-8.46l-1.35,4.1h-7.07l10.01-27.5h5.22l10.01,27.5H679.96z M674.59,297.19
			l-2.47,7.34h4.79L674.59,297.19z"/>
		<path class="st29" d="M701.19,314.26h-11.98v-27.5h11.4c5.72,0,8.77,3.21,8.77,7.96c0,3.13-2.16,4.87-3.01,5.45
			c1.12,0.69,3.4,2.12,3.4,5.99C709.77,311.4,706.1,314.26,701.19,314.26z M700.19,292.82h-4.21v4.48h4.21
			c1.85,0,2.43-1.16,2.43-2.24C702.62,293.98,702.04,292.82,700.19,292.82z M700.53,303.37h-4.56v4.83h4.56
			c1.85,0,2.47-1.28,2.47-2.43C703.01,304.6,702.39,303.37,700.53,303.37z"/>
	</g>
</g>
<g id="Logo_Noir_CMJN" class="st0">
	<g class="st2">
		<g>
			<defs>
				<path id="SVGID_00000139987431964768627900000017657258915700165510_" d="M121.67,217.83c-12.35,29.9,1.87,64.15,31.77,76.5
					l65.32,26.99c29.9,12.35,64.15-1.87,76.5-31.77l26.69-64.6c12.35-29.9-1.87-64.15-31.76-76.5l-65.32-26.99
					c-29.9-12.35-64.15,1.87-76.5,31.77L121.67,217.83z"/>
			</defs>
			<clipPath id="SVGID_00000085219250154760694650000011106091715063861930_">
				<use xlink:href="#SVGID_00000139987431964768627900000017657258915700165510_"  style="overflow:visible;"/>
			</clipPath>
			<g style="clip-path:url(#SVGID_00000085219250154760694650000011106091715063861930_);">
				<g>
					<g>
						<path d="M209.51,113.64c35.69,24.08,64.66,64.93,79.95,112.97c1.72,5.4,3.25,10.89,4.66,16.74
							c14.54-12.26,26.51-25.8,35.62-40.27c0.8-24.77-14.01-47.73-36.95-57.21l-68.23-28.19
							C219.7,115.67,214.66,114.32,209.51,113.64z"/>
					</g>
				</g>
				<g>
					<g>
						<path d="M201.89,113.19c-24.31,0-46.02,14.52-55.3,36.98L118.4,218.4c-2.01,4.86-3.36,9.9-4.04,15.05
							c24.08-35.69,64.93-64.66,112.97-79.95c5.4-1.72,10.9-3.25,16.76-4.67c-12.27-14.54-25.82-26.51-40.3-35.61
							C203.16,113.2,202.52,113.19,201.89,113.19z"/>
					</g>
				</g>
				<g>
					<g>
						<path d="M113.97,239.1c-0.8,24.77,14.01,47.73,36.95,57.21l68.23,28.19c4.86,2.01,9.91,3.36,15.06,4.04
							c-35.69-24.08-64.66-64.93-79.95-112.97c-1.72-5.4-3.25-10.89-4.66-16.74C135.06,211.08,123.08,224.62,113.97,239.1z"/>
					</g>
				</g>
				<g>
					<g>
						<path d="M239.91,328.96c25.02,0.88,47.68-13.9,57.21-36.95l28.19-68.23c2.01-4.86,3.36-9.9,4.04-15.05
							c-24.08,35.69-64.93,64.66-112.97,79.95c-5.4,1.72-10.9,3.25-16.76,4.67C211.89,307.89,225.43,319.86,239.91,328.96z"/>
					</g>
				</g>
			</g>
		</g>
		<g>
			<defs>
				<path id="SVGID_00000166652590545262510250000013104267983411321490_" d="M178.4,219.85c-5.35,12.96,0.81,27.81,13.77,33.16
					l28.32,11.7c12.96,5.35,27.81-0.81,33.16-13.77l11.57-28c5.36-12.96-0.81-27.81-13.77-33.16l-28.32-11.7
					c-12.96-5.36-27.81,0.81-33.16,13.77L178.4,219.85z"/>
			</defs>
			<clipPath id="SVGID_00000067229822091180754030000006329571255441150136_">
				<use xlink:href="#SVGID_00000166652590545262510250000013104267983411321490_"  style="overflow:visible;"/>
			</clipPath>
			<g style="clip-path:url(#SVGID_00000067229822091180754030000006329571255441150136_);">
				<g>
					<g>
						<path d="M216.48,174.68c15.47,10.44,28.03,28.15,34.66,48.97c0.74,2.34,1.41,4.72,2.02,7.26c6.3-5.31,11.49-11.18,15.44-17.46
							c0.35-10.74-6.08-20.69-16.02-24.8L223,176.43C220.9,175.56,218.71,174.98,216.48,174.68z"/>
					</g>
				</g>
				<g>
					<g>
						<path d="M213.17,174.48c-10.54,0-19.95,6.29-23.97,16.03l-12.22,29.58c-0.87,2.11-1.46,4.29-1.75,6.53
							c10.44-15.47,28.15-28.03,48.97-34.66c2.34-0.75,4.73-1.41,7.27-2.02c-5.32-6.3-11.19-11.49-17.47-15.44
							C213.73,174.49,213.45,174.48,213.17,174.48z"/>
					</g>
				</g>
				<g>
					<g>
						<path d="M175.07,229.07c-0.35,10.74,6.07,20.69,16.02,24.8l29.58,12.22c2.11,0.87,4.3,1.46,6.53,1.75
							c-15.47-10.44-28.03-28.15-34.66-48.97c-0.74-2.34-1.41-4.72-2.02-7.26C184.21,216.92,179.01,222.79,175.07,229.07z"/>
					</g>
				</g>
				<g>
					<g>
						<path d="M229.66,268.02c10.85,0.38,20.67-6.02,24.8-16.02l12.22-29.58c0.87-2.11,1.46-4.29,1.75-6.52
							c-10.44,15.47-28.15,28.03-48.97,34.66c-2.34,0.74-4.73,1.41-7.27,2.02C217.51,258.89,223.38,264.08,229.66,268.02z"/>
					</g>
				</g>
			</g>
		</g>
	</g>
	<g class="st2">
		<path d="M421.03,143.77h-25.9l-49.75,117.2h27.26l12.4-30.46h45.77l12.73,30.46h28.3L421.03,143.77z M394.61,207.03l13.01-31.96
			l13.39,31.96H394.61z"/>
		<path d="M504.97,260.97h-26.75V143.2h55.35c30.45,0,49.29,13.46,49.29,37.52v6.06c0,15.14-9.76,27.59-27.93,32.3l32.81,41.89
			h-34.15l-31.97-41.89v-17.5h11.95c14.64,0,22.54-5.22,22.54-16.66v-2.19c0-11.44-7.91-16.32-22.54-16.32h-28.6V260.97z"/>
		<path d="M595.81,143.2h54.01c30.79,0,47.44,11.44,47.44,33.14v3.87c0,6.56-4.88,16.32-14.64,20.86
			c9.93,3.03,17.83,12.11,17.83,22.71v5.89c0,18.17-14.3,31.29-45.26,31.29h-59.39V143.2z M654.86,192.16
			c9.42,0,15.48-3.87,15.48-12.45v-1.35c0-9.09-6.23-12.28-20.02-12.28h-27.76v26.08H654.86z M654.69,238.26
			c13.29,0,19.01-4.21,19.01-10.26v-3.87c0-6.73-5.89-10.94-16.82-10.94h-34.32v25.07H654.69z"/>
		<path d="M775.05,143.77h-25.9l-49.75,117.2h27.26l12.4-30.46h45.77l12.73,30.46h28.3L775.05,143.77z M748.63,207.03l13.01-31.96
			l13.39,31.96H748.63z"/>
	</g>
	<g class="st2">
		<path d="M356.18,314.49c-3.21,0-5.64-1.08-7.65-3.09c-2.9-2.9-2.78-6.76-2.78-10.89c0-4.13-0.12-8,2.78-10.89
			c2.01-2.01,4.44-3.09,7.65-3.09c5.22,0,9.43,2.9,10.43,8.96h-6.88c-0.43-1.55-1.28-2.94-3.52-2.94c-1.24,0-2.16,0.5-2.66,1.16
			c-0.62,0.81-1.04,1.78-1.04,6.8c0,5.02,0.43,5.99,1.04,6.8c0.5,0.66,1.43,1.16,2.66,1.16c2.24,0,3.09-1.39,3.52-2.94h6.88
			C365.6,311.6,361.39,314.49,356.18,314.49z"/>
		<path d="M386.84,311.4c-2.01,2.01-4.33,3.09-7.69,3.09c-3.36,0-5.68-1.08-7.69-3.09c-2.9-2.9-2.78-6.76-2.78-10.89
			c0-4.13-0.12-8,2.78-10.89c2.01-2.01,4.33-3.09,7.69-3.09c3.36,0,5.68,1.08,7.69,3.09c2.9,2.9,2.78,6.76,2.78,10.89
			C389.62,304.64,389.74,308.51,386.84,311.4z M381.85,293.75c-0.5-0.66-1.47-1.2-2.7-1.2s-2.2,0.54-2.7,1.2
			c-0.62,0.81-1,1.74-1,6.76c0,5.02,0.39,5.91,1,6.72c0.5,0.66,1.47,1.24,2.7,1.24s2.2-0.58,2.7-1.24c0.62-0.81,1-1.7,1-6.72
			C382.86,295.49,382.47,294.56,381.85,293.75z"/>
		<path d="M410.58,311.4c-2.01,2.01-4.33,3.09-7.69,3.09c-3.36,0-5.68-1.08-7.69-3.09c-2.9-2.9-2.78-6.76-2.78-10.89
			c0-4.13-0.12-8,2.78-10.89c2.01-2.01,4.33-3.09,7.69-3.09c3.36,0,5.68,1.08,7.69,3.09c2.9,2.9,2.78,6.76,2.78,10.89
			C413.36,304.64,413.48,308.51,410.58,311.4z M405.6,293.75c-0.5-0.66-1.47-1.2-2.7-1.2s-2.2,0.54-2.7,1.2
			c-0.62,0.81-1,1.74-1,6.76c0,5.02,0.39,5.91,1,6.72c0.5,0.66,1.47,1.24,2.7,1.24s2.2-0.58,2.7-1.24c0.62-0.81,1-1.7,1-6.72
			C406.6,295.49,406.22,294.56,405.6,293.75z"/>
		<path d="M427.76,304.45h-4.13v9.81h-6.76v-27.5h10.89c6.1,0,9.39,4.33,9.39,8.85C437.15,300.12,433.86,304.45,427.76,304.45z
			 M427.45,292.82h-3.82v5.56h3.82c1.85,0,2.94-1.35,2.94-2.78S429.31,292.82,427.45,292.82z"/>
		<path d="M439.53,314.26v-27.5h18.7v6.03h-11.94v4.6h10.2v6.03h-10.2v4.83h11.94v6.03H439.53z M450.23,284.05h-3.82l1.89-6.95h6.49
			L450.23,284.05z"/>
		<path d="M476.33,314.26l-4.87-10.24h-2.28v10.24h-6.76v-27.5h10.89c6.1,0,9.39,4.33,9.39,8.85c0,3.75-2.32,6.1-4.48,7.19
			l5.95,11.47H476.33z M473.01,292.82h-3.82v5.56h3.82c1.85,0,2.94-1.35,2.94-2.78S474.87,292.82,473.01,292.82z"/>
		<path d="M502.4,314.26l-1.28-4.1h-8.46l-1.35,4.1h-7.07l10.01-27.5h5.22l10.01,27.5H502.4z M497.03,297.19l-2.47,7.34h4.79
			L497.03,297.19z"/>
		<path d="M519.69,292.78v21.48h-6.76v-21.48h-6.76v-6.03h20.28v6.03H519.69z"/>
		<path d="M529.41,314.26v-27.5h6.76v27.5H529.41z"/>
		<path d="M552.47,314.26h-5.02l-9.08-27.5h6.99l4.64,15.37l4.56-15.37h7.03L552.47,314.26z"/>
		<path d="M563.77,314.26v-27.5h18.7v6.03h-11.94v4.6h10.2v6.03h-10.2v4.83h11.94v6.03H563.77z"/>
		<path d="M611.93,311.4c-2.01,2.01-4.33,3.09-7.69,3.09c-3.36,0-5.68-1.08-7.69-3.09c-2.9-2.9-2.78-6.76-2.78-10.89
			c0-4.13-0.12-8,2.78-10.89c2.01-2.01,4.33-3.09,7.69-3.09c3.36,0,5.68,1.08,7.69,3.09c2.9,2.9,2.78,6.76,2.78,10.89
			C614.71,304.64,614.83,308.51,611.93,311.4z M606.95,293.75c-0.5-0.66-1.47-1.2-2.7-1.2c-1.24,0-2.2,0.54-2.7,1.2
			c-0.62,0.81-1,1.74-1,6.76c0,5.02,0.39,5.91,1,6.72c0.5,0.66,1.47,1.24,2.7,1.24c1.24,0,2.2-0.58,2.7-1.24c0.62-0.81,1-1.7,1-6.72
			C607.95,295.49,607.56,294.56,606.95,293.75z"/>
		<path d="M632.12,314.26l-4.87-10.24h-2.28v10.24h-6.76v-27.5h10.89c6.1,0,9.39,4.33,9.39,8.85c0,3.75-2.32,6.1-4.48,7.19
			l5.95,11.47H632.12z M628.8,292.82h-3.82v5.56h3.82c1.85,0,2.94-1.35,2.94-2.78S630.65,292.82,628.8,292.82z"/>
		<path d="M651.58,314.49c-3.21,0-5.64-1.08-7.65-3.09c-2.9-2.9-2.78-6.76-2.78-10.89c0-4.13-0.12-8,2.78-10.89
			c2.01-2.01,4.44-3.09,7.65-3.09c5.22,0,9.43,2.9,10.43,8.96h-6.88c-0.43-1.55-1.28-2.94-3.52-2.94c-1.24,0-2.16,0.5-2.66,1.16
			c-0.62,0.81-1.04,1.78-1.04,6.8c0,5.02,0.43,5.99,1.04,6.8c0.5,0.66,1.43,1.16,2.66,1.16c2.24,0,3.09-1.39,3.52-2.94h6.88
			C661,311.6,656.79,314.49,651.58,314.49z"/>
		<path d="M679.96,314.26l-1.28-4.1h-8.46l-1.35,4.1h-7.07l10.01-27.5h5.22l10.01,27.5H679.96z M674.59,297.19l-2.47,7.34h4.79
			L674.59,297.19z"/>
		<path d="M701.19,314.26h-11.98v-27.5h11.4c5.72,0,8.77,3.21,8.77,7.96c0,3.13-2.16,4.87-3.01,5.45c1.12,0.69,3.4,2.12,3.4,5.99
			C709.77,311.4,706.1,314.26,701.19,314.26z M700.19,292.82h-4.21v4.48h4.21c1.85,0,2.43-1.16,2.43-2.24
			C702.62,293.98,702.04,292.82,700.19,292.82z M700.53,303.37h-4.56v4.83h4.56c1.85,0,2.47-1.28,2.47-2.43
			C703.01,304.6,702.39,303.37,700.53,303.37z"/>
	</g>
</g>
<g id="Logo_Blanc_CMJN" class="st0">
	<g class="st2">
		<g>
			<defs>
				<path id="SVGID_00000160877649820594735900000014175356002981306789_" d="M121.67,217.83c-12.35,29.9,1.87,64.15,31.77,76.5
					l65.32,26.99c29.9,12.35,64.15-1.87,76.5-31.77l26.69-64.6c12.35-29.9-1.87-64.15-31.76-76.5l-65.32-26.99
					c-29.9-12.35-64.15,1.87-76.5,31.77L121.67,217.83z"/>
			</defs>
			<clipPath id="SVGID_00000106127548339005245150000001376912812644964786_">
				<use xlink:href="#SVGID_00000160877649820594735900000014175356002981306789_"  style="overflow:visible;"/>
			</clipPath>
			<g style="clip-path:url(#SVGID_00000106127548339005245150000001376912812644964786_);">
				<g>
					<g>
						<path class="st33" d="M209.51,113.64c35.69,24.08,64.66,64.93,79.95,112.97c1.72,5.4,3.25,10.89,4.66,16.74
							c14.54-12.26,26.51-25.8,35.62-40.27c0.8-24.77-14.01-47.73-36.95-57.21l-68.23-28.19
							C219.7,115.67,214.66,114.32,209.51,113.64z"/>
					</g>
				</g>
				<g>
					<g>
						<path class="st33" d="M201.89,113.19c-24.31,0-46.02,14.52-55.3,36.98L118.4,218.4c-2.01,4.86-3.36,9.9-4.04,15.05
							c24.08-35.69,64.93-64.66,112.97-79.95c5.4-1.72,10.9-3.25,16.76-4.67c-12.27-14.54-25.82-26.51-40.3-35.61
							C203.16,113.2,202.52,113.19,201.89,113.19z"/>
					</g>
				</g>
				<g>
					<g>
						<path class="st33" d="M113.97,239.1c-0.8,24.77,14.01,47.73,36.95,57.21l68.23,28.19c4.86,2.01,9.91,3.36,15.06,4.04
							c-35.69-24.08-64.66-64.93-79.95-112.97c-1.72-5.4-3.25-10.89-4.66-16.74C135.06,211.08,123.08,224.62,113.97,239.1z"/>
					</g>
				</g>
				<g>
					<g>
						<path class="st33" d="M239.91,328.96c25.02,0.88,47.68-13.9,57.21-36.95l28.19-68.23c2.01-4.86,3.36-9.9,4.04-15.05
							c-24.08,35.69-64.93,64.66-112.97,79.95c-5.4,1.72-10.9,3.25-16.76,4.67C211.89,307.89,225.43,319.86,239.91,328.96z"/>
					</g>
				</g>
			</g>
		</g>
		<g>
			<defs>
				<path id="SVGID_00000020362682603447076000000005207559539589180854_" d="M178.4,219.85c-5.35,12.96,0.81,27.81,13.77,33.16
					l28.32,11.7c12.96,5.35,27.81-0.81,33.16-13.77l11.57-28c5.36-12.96-0.81-27.81-13.77-33.16l-28.32-11.7
					c-12.96-5.36-27.81,0.81-33.16,13.77L178.4,219.85z"/>
			</defs>
			<clipPath id="SVGID_00000178908423501312637930000007702725294758587532_">
				<use xlink:href="#SVGID_00000020362682603447076000000005207559539589180854_"  style="overflow:visible;"/>
			</clipPath>
			<g style="clip-path:url(#SVGID_00000178908423501312637930000007702725294758587532_);">
				<g>
					<g>
						<path class="st33" d="M216.48,174.68c15.47,10.44,28.03,28.15,34.66,48.97c0.74,2.34,1.41,4.72,2.02,7.26
							c6.3-5.31,11.49-11.18,15.44-17.46c0.35-10.74-6.08-20.69-16.02-24.8L223,176.43C220.9,175.56,218.71,174.98,216.48,174.68z"
							/>
					</g>
				</g>
				<g>
					<g>
						<path class="st33" d="M213.17,174.48c-10.54,0-19.95,6.29-23.97,16.03l-12.22,29.58c-0.87,2.11-1.46,4.29-1.75,6.53
							c10.44-15.47,28.15-28.03,48.97-34.66c2.34-0.75,4.73-1.41,7.27-2.02c-5.32-6.3-11.19-11.49-17.47-15.44
							C213.73,174.49,213.45,174.48,213.17,174.48z"/>
					</g>
				</g>
				<g>
					<g>
						<path class="st33" d="M175.07,229.07c-0.35,10.74,6.07,20.69,16.02,24.8l29.58,12.22c2.11,0.87,4.3,1.46,6.53,1.75
							c-15.47-10.44-28.03-28.15-34.66-48.97c-0.74-2.34-1.41-4.72-2.02-7.26C184.21,216.92,179.01,222.79,175.07,229.07z"/>
					</g>
				</g>
				<g>
					<g>
						<path class="st33" d="M229.66,268.02c10.85,0.38,20.67-6.02,24.8-16.02l12.22-29.58c0.87-2.11,1.46-4.29,1.75-6.52
							c-10.44,15.47-28.15,28.03-48.97,34.66c-2.34,0.74-4.73,1.41-7.27,2.02C217.51,258.89,223.38,264.08,229.66,268.02z"/>
					</g>
				</g>
			</g>
		</g>
	</g>
	<g class="st2">
		<path class="st33" d="M421.03,143.77h-25.9l-49.75,117.2h27.26l12.4-30.46h45.77l12.73,30.46h28.3L421.03,143.77z M394.61,207.03
			l13.01-31.96l13.39,31.96H394.61z"/>
		<path class="st33" d="M504.97,260.97h-26.75V143.2h55.35c30.45,0,49.29,13.46,49.29,37.52v6.06c0,15.14-9.76,27.59-27.93,32.3
			l32.81,41.89h-34.15l-31.97-41.89v-17.5h11.95c14.64,0,22.54-5.22,22.54-16.66v-2.19c0-11.44-7.91-16.32-22.54-16.32h-28.6V260.97
			z"/>
		<path class="st33" d="M595.81,143.2h54.01c30.79,0,47.44,11.44,47.44,33.14v3.87c0,6.56-4.88,16.32-14.64,20.86
			c9.93,3.03,17.83,12.11,17.83,22.71v5.89c0,18.17-14.3,31.29-45.26,31.29h-59.39V143.2z M654.86,192.16
			c9.42,0,15.48-3.87,15.48-12.45v-1.35c0-9.09-6.23-12.28-20.02-12.28h-27.76v26.08H654.86z M654.69,238.26
			c13.29,0,19.01-4.21,19.01-10.26v-3.87c0-6.73-5.89-10.94-16.82-10.94h-34.32v25.07H654.69z"/>
		<path class="st33" d="M775.05,143.77h-25.9l-49.75,117.2h27.26l12.4-30.46h45.77l12.73,30.46h28.3L775.05,143.77z M748.63,207.03
			l13.01-31.96l13.39,31.96H748.63z"/>
	</g>
	<g class="st2">
		<path class="st33" d="M356.18,314.49c-3.21,0-5.64-1.08-7.65-3.09c-2.9-2.9-2.78-6.76-2.78-10.89c0-4.13-0.12-8,2.78-10.89
			c2.01-2.01,4.44-3.09,7.65-3.09c5.22,0,9.43,2.9,10.43,8.96h-6.88c-0.43-1.55-1.28-2.94-3.52-2.94c-1.24,0-2.16,0.5-2.66,1.16
			c-0.62,0.81-1.04,1.78-1.04,6.8c0,5.02,0.43,5.99,1.04,6.8c0.5,0.66,1.43,1.16,2.66,1.16c2.24,0,3.09-1.39,3.52-2.94h6.88
			C365.6,311.6,361.39,314.49,356.18,314.49z"/>
		<path class="st33" d="M386.84,311.4c-2.01,2.01-4.33,3.09-7.69,3.09c-3.36,0-5.68-1.08-7.69-3.09c-2.9-2.9-2.78-6.76-2.78-10.89
			c0-4.13-0.12-8,2.78-10.89c2.01-2.01,4.33-3.09,7.69-3.09c3.36,0,5.68,1.08,7.69,3.09c2.9,2.9,2.78,6.76,2.78,10.89
			C389.62,304.64,389.74,308.51,386.84,311.4z M381.85,293.75c-0.5-0.66-1.47-1.2-2.7-1.2s-2.2,0.54-2.7,1.2
			c-0.62,0.81-1,1.74-1,6.76c0,5.02,0.39,5.91,1,6.72c0.5,0.66,1.47,1.24,2.7,1.24s2.2-0.58,2.7-1.24c0.62-0.81,1-1.7,1-6.72
			C382.86,295.49,382.47,294.56,381.85,293.75z"/>
		<path class="st33" d="M410.58,311.4c-2.01,2.01-4.33,3.09-7.69,3.09c-3.36,0-5.68-1.08-7.69-3.09c-2.9-2.9-2.78-6.76-2.78-10.89
			c0-4.13-0.12-8,2.78-10.89c2.01-2.01,4.33-3.09,7.69-3.09c3.36,0,5.68,1.08,7.69,3.09c2.9,2.9,2.78,6.76,2.78,10.89
			C413.36,304.64,413.48,308.51,410.58,311.4z M405.6,293.75c-0.5-0.66-1.47-1.2-2.7-1.2s-2.2,0.54-2.7,1.2
			c-0.62,0.81-1,1.74-1,6.76c0,5.02,0.39,5.91,1,6.72c0.5,0.66,1.47,1.24,2.7,1.24s2.2-0.58,2.7-1.24c0.62-0.81,1-1.7,1-6.72
			C406.6,295.49,406.22,294.56,405.6,293.75z"/>
		<path class="st33" d="M427.76,304.45h-4.13v9.81h-6.76v-27.5h10.89c6.1,0,9.39,4.33,9.39,8.85
			C437.15,300.12,433.86,304.45,427.76,304.45z M427.45,292.82h-3.82v5.56h3.82c1.85,0,2.94-1.35,2.94-2.78
			S429.31,292.82,427.45,292.82z"/>
		<path class="st33" d="M439.53,314.26v-27.5h18.7v6.03h-11.94v4.6h10.2v6.03h-10.2v4.83h11.94v6.03H439.53z M450.23,284.05h-3.82
			l1.89-6.95h6.49L450.23,284.05z"/>
		<path class="st33" d="M476.33,314.26l-4.87-10.24h-2.28v10.24h-6.76v-27.5h10.89c6.1,0,9.39,4.33,9.39,8.85
			c0,3.75-2.32,6.1-4.48,7.19l5.95,11.47H476.33z M473.01,292.82h-3.82v5.56h3.82c1.85,0,2.94-1.35,2.94-2.78
			S474.87,292.82,473.01,292.82z"/>
		<path class="st33" d="M502.4,314.26l-1.28-4.1h-8.46l-1.35,4.1h-7.07l10.01-27.5h5.22l10.01,27.5H502.4z M497.03,297.19
			l-2.47,7.34h4.79L497.03,297.19z"/>
		<path class="st33" d="M519.69,292.78v21.48h-6.76v-21.48h-6.76v-6.03h20.28v6.03H519.69z"/>
		<path class="st33" d="M529.41,314.26v-27.5h6.76v27.5H529.41z"/>
		<path class="st33" d="M552.47,314.26h-5.02l-9.08-27.5h6.99l4.64,15.37l4.56-15.37h7.03L552.47,314.26z"/>
		<path class="st33" d="M563.77,314.26v-27.5h18.7v6.03h-11.94v4.6h10.2v6.03h-10.2v4.83h11.94v6.03H563.77z"/>
		<path class="st33" d="M611.93,311.4c-2.01,2.01-4.33,3.09-7.69,3.09c-3.36,0-5.68-1.08-7.69-3.09c-2.9-2.9-2.78-6.76-2.78-10.89
			c0-4.13-0.12-8,2.78-10.89c2.01-2.01,4.33-3.09,7.69-3.09c3.36,0,5.68,1.08,7.69,3.09c2.9,2.9,2.78,6.76,2.78,10.89
			C614.71,304.64,614.83,308.51,611.93,311.4z M606.95,293.75c-0.5-0.66-1.47-1.2-2.7-1.2c-1.24,0-2.2,0.54-2.7,1.2
			c-0.62,0.81-1,1.74-1,6.76c0,5.02,0.39,5.91,1,6.72c0.5,0.66,1.47,1.24,2.7,1.24c1.24,0,2.2-0.58,2.7-1.24c0.62-0.81,1-1.7,1-6.72
			C607.95,295.49,607.56,294.56,606.95,293.75z"/>
		<path class="st33" d="M632.12,314.26l-4.87-10.24h-2.28v10.24h-6.76v-27.5h10.89c6.1,0,9.39,4.33,9.39,8.85
			c0,3.75-2.32,6.1-4.48,7.19l5.95,11.47H632.12z M628.8,292.82h-3.82v5.56h3.82c1.85,0,2.94-1.35,2.94-2.78
			S630.65,292.82,628.8,292.82z"/>
		<path class="st33" d="M651.58,314.49c-3.21,0-5.64-1.08-7.65-3.09c-2.9-2.9-2.78-6.76-2.78-10.89c0-4.13-0.12-8,2.78-10.89
			c2.01-2.01,4.44-3.09,7.65-3.09c5.22,0,9.43,2.9,10.43,8.96h-6.88c-0.43-1.55-1.28-2.94-3.52-2.94c-1.24,0-2.16,0.5-2.66,1.16
			c-0.62,0.81-1.04,1.78-1.04,6.8c0,5.02,0.43,5.99,1.04,6.8c0.5,0.66,1.43,1.16,2.66,1.16c2.24,0,3.09-1.39,3.52-2.94h6.88
			C661,311.6,656.79,314.49,651.58,314.49z"/>
		<path class="st33" d="M679.96,314.26l-1.28-4.1h-8.46l-1.35,4.1h-7.07l10.01-27.5h5.22l10.01,27.5H679.96z M674.59,297.19
			l-2.47,7.34h4.79L674.59,297.19z"/>
		<path class="st33" d="M701.19,314.26h-11.98v-27.5h11.4c5.72,0,8.77,3.21,8.77,7.96c0,3.13-2.16,4.87-3.01,5.45
			c1.12,0.69,3.4,2.12,3.4,5.99C709.77,311.4,706.1,314.26,701.19,314.26z M700.19,292.82h-4.21v4.48h4.21
			c1.85,0,2.43-1.16,2.43-2.24C702.62,293.98,702.04,292.82,700.19,292.82z M700.53,303.37h-4.56v4.83h4.56
			c1.85,0,2.47-1.28,2.47-2.43C703.01,304.6,702.39,303.37,700.53,303.37z"/>
	</g>
</g>
<g id="Logo_Bleu_CMJN" class="st0">
	<g class="st2">
		<g>
			<defs>
				<path id="SVGID_00000031913265300721966070000011239868090722223292_" d="M121.67,217.83c-12.35,29.9,1.87,64.15,31.77,76.5
					l65.32,26.99c29.9,12.35,64.15-1.87,76.5-31.77l26.69-64.6c12.35-29.9-1.87-64.15-31.76-76.5l-65.32-26.99
					c-29.9-12.35-64.15,1.87-76.5,31.77L121.67,217.83z"/>
			</defs>
			<clipPath id="SVGID_00000003819861588309798560000014215409586209989003_">
				<use xlink:href="#SVGID_00000031913265300721966070000011239868090722223292_"  style="overflow:visible;"/>
			</clipPath>
			<g style="clip-path:url(#SVGID_00000003819861588309798560000014215409586209989003_);">
				<g>
					<g>
						<path class="st36" d="M209.51,113.64c35.69,24.08,64.66,64.93,79.95,112.97c1.72,5.4,3.25,10.89,4.66,16.74
							c14.54-12.26,26.51-25.8,35.62-40.27c0.8-24.77-14.01-47.73-36.95-57.21l-68.23-28.19
							C219.7,115.67,214.66,114.32,209.51,113.64z"/>
					</g>
				</g>
				<g>
					<g>
						<path class="st36" d="M201.89,113.19c-24.31,0-46.02,14.52-55.3,36.98L118.4,218.4c-2.01,4.86-3.36,9.9-4.04,15.05
							c24.08-35.69,64.93-64.66,112.97-79.95c5.4-1.72,10.9-3.25,16.76-4.67c-12.27-14.54-25.82-26.51-40.3-35.61
							C203.16,113.2,202.52,113.19,201.89,113.19z"/>
					</g>
				</g>
				<g>
					<g>
						<path class="st36" d="M113.97,239.1c-0.8,24.77,14.01,47.73,36.95,57.21l68.23,28.19c4.86,2.01,9.91,3.36,15.06,4.04
							c-35.69-24.08-64.66-64.93-79.95-112.97c-1.72-5.4-3.25-10.89-4.66-16.74C135.06,211.08,123.08,224.62,113.97,239.1z"/>
					</g>
				</g>
				<g>
					<g>
						<path class="st36" d="M239.91,328.96c25.02,0.88,47.68-13.9,57.21-36.95l28.19-68.23c2.01-4.86,3.36-9.9,4.04-15.05
							c-24.08,35.69-64.93,64.66-112.97,79.95c-5.4,1.72-10.9,3.25-16.76,4.67C211.89,307.89,225.43,319.86,239.91,328.96z"/>
					</g>
				</g>
			</g>
		</g>
		<g>
			<defs>
				<path id="SVGID_00000129891667042270750320000003723889239997707407_" d="M178.4,219.85c-5.35,12.96,0.81,27.81,13.77,33.16
					l28.32,11.7c12.96,5.35,27.81-0.81,33.16-13.77l11.57-28c5.36-12.96-0.81-27.81-13.77-33.16l-28.32-11.7
					c-12.96-5.36-27.81,0.81-33.16,13.77L178.4,219.85z"/>
			</defs>
			<clipPath id="SVGID_00000140009835940467564750000013044693050791475598_">
				<use xlink:href="#SVGID_00000129891667042270750320000003723889239997707407_"  style="overflow:visible;"/>
			</clipPath>
			<g style="clip-path:url(#SVGID_00000140009835940467564750000013044693050791475598_);">
				<g>
					<g>
						<path class="st36" d="M216.48,174.68c15.47,10.44,28.03,28.15,34.66,48.97c0.74,2.34,1.41,4.72,2.02,7.26
							c6.3-5.31,11.49-11.18,15.44-17.46c0.35-10.74-6.08-20.69-16.02-24.8L223,176.43C220.9,175.56,218.71,174.98,216.48,174.68z"
							/>
					</g>
				</g>
				<g>
					<g>
						<path class="st36" d="M213.17,174.48c-10.54,0-19.95,6.29-23.97,16.03l-12.22,29.58c-0.87,2.11-1.46,4.29-1.75,6.53
							c10.44-15.47,28.15-28.03,48.97-34.66c2.34-0.75,4.73-1.41,7.27-2.02c-5.32-6.3-11.19-11.49-17.47-15.44
							C213.73,174.49,213.45,174.48,213.17,174.48z"/>
					</g>
				</g>
				<g>
					<g>
						<path class="st36" d="M175.07,229.07c-0.35,10.74,6.07,20.69,16.02,24.8l29.58,12.22c2.11,0.87,4.3,1.46,6.53,1.75
							c-15.47-10.44-28.03-28.15-34.66-48.97c-0.74-2.34-1.41-4.72-2.02-7.26C184.21,216.92,179.01,222.79,175.07,229.07z"/>
					</g>
				</g>
				<g>
					<g>
						<path class="st36" d="M229.66,268.02c10.85,0.38,20.67-6.02,24.8-16.02l12.22-29.58c0.87-2.11,1.46-4.29,1.75-6.52
							c-10.44,15.47-28.15,28.03-48.97,34.66c-2.34,0.74-4.73,1.41-7.27,2.02C217.51,258.89,223.38,264.08,229.66,268.02z"/>
					</g>
				</g>
			</g>
		</g>
	</g>
	<g class="st2">
		<path class="st36" d="M421.03,143.77h-25.9l-49.75,117.2h27.26l12.4-30.46h45.77l12.73,30.46h28.3L421.03,143.77z M394.61,207.03
			l13.01-31.96l13.39,31.96H394.61z"/>
		<path class="st36" d="M504.97,260.97h-26.75V143.2h55.35c30.45,0,49.29,13.46,49.29,37.52v6.06c0,15.14-9.76,27.59-27.93,32.3
			l32.81,41.89h-34.15l-31.97-41.89v-17.5h11.95c14.64,0,22.54-5.22,22.54-16.66v-2.19c0-11.44-7.91-16.32-22.54-16.32h-28.6V260.97
			z"/>
		<path class="st36" d="M595.81,143.2h54.01c30.79,0,47.44,11.44,47.44,33.14v3.87c0,6.56-4.88,16.32-14.64,20.86
			c9.93,3.03,17.83,12.11,17.83,22.71v5.89c0,18.17-14.3,31.29-45.26,31.29h-59.39V143.2z M654.86,192.16
			c9.42,0,15.48-3.87,15.48-12.45v-1.35c0-9.09-6.23-12.28-20.02-12.28h-27.76v26.08H654.86z M654.69,238.26
			c13.29,0,19.01-4.21,19.01-10.26v-3.87c0-6.73-5.89-10.94-16.82-10.94h-34.32v25.07H654.69z"/>
		<path class="st36" d="M775.05,143.77h-25.9l-49.75,117.2h27.26l12.4-30.46h45.77l12.73,30.46h28.3L775.05,143.77z M748.63,207.03
			l13.01-31.96l13.39,31.96H748.63z"/>
	</g>
	<g class="st2">
		<path class="st36" d="M356.18,314.49c-3.21,0-5.64-1.08-7.65-3.09c-2.9-2.9-2.78-6.76-2.78-10.89c0-4.13-0.12-8,2.78-10.89
			c2.01-2.01,4.44-3.09,7.65-3.09c5.22,0,9.43,2.9,10.43,8.96h-6.88c-0.43-1.55-1.28-2.94-3.52-2.94c-1.24,0-2.16,0.5-2.66,1.16
			c-0.62,0.81-1.04,1.78-1.04,6.8c0,5.02,0.43,5.99,1.04,6.8c0.5,0.66,1.43,1.16,2.66,1.16c2.24,0,3.09-1.39,3.52-2.94h6.88
			C365.6,311.6,361.39,314.49,356.18,314.49z"/>
		<path class="st36" d="M386.84,311.4c-2.01,2.01-4.33,3.09-7.69,3.09c-3.36,0-5.68-1.08-7.69-3.09c-2.9-2.9-2.78-6.76-2.78-10.89
			c0-4.13-0.12-8,2.78-10.89c2.01-2.01,4.33-3.09,7.69-3.09c3.36,0,5.68,1.08,7.69,3.09c2.9,2.9,2.78,6.76,2.78,10.89
			C389.62,304.64,389.74,308.51,386.84,311.4z M381.85,293.75c-0.5-0.66-1.47-1.2-2.7-1.2s-2.2,0.54-2.7,1.2
			c-0.62,0.81-1,1.74-1,6.76c0,5.02,0.39,5.91,1,6.72c0.5,0.66,1.47,1.24,2.7,1.24s2.2-0.58,2.7-1.24c0.62-0.81,1-1.7,1-6.72
			C382.86,295.49,382.47,294.56,381.85,293.75z"/>
		<path class="st36" d="M410.58,311.4c-2.01,2.01-4.33,3.09-7.69,3.09c-3.36,0-5.68-1.08-7.69-3.09c-2.9-2.9-2.78-6.76-2.78-10.89
			c0-4.13-0.12-8,2.78-10.89c2.01-2.01,4.33-3.09,7.69-3.09c3.36,0,5.68,1.08,7.69,3.09c2.9,2.9,2.78,6.76,2.78,10.89
			C413.36,304.64,413.48,308.51,410.58,311.4z M405.6,293.75c-0.5-0.66-1.47-1.2-2.7-1.2s-2.2,0.54-2.7,1.2
			c-0.62,0.81-1,1.74-1,6.76c0,5.02,0.39,5.91,1,6.72c0.5,0.66,1.47,1.24,2.7,1.24s2.2-0.58,2.7-1.24c0.62-0.81,1-1.7,1-6.72
			C406.6,295.49,406.22,294.56,405.6,293.75z"/>
		<path class="st36" d="M427.76,304.45h-4.13v9.81h-6.76v-27.5h10.89c6.1,0,9.39,4.33,9.39,8.85
			C437.15,300.12,433.86,304.45,427.76,304.45z M427.45,292.82h-3.82v5.56h3.82c1.85,0,2.94-1.35,2.94-2.78
			S429.31,292.82,427.45,292.82z"/>
		<path class="st36" d="M439.53,314.26v-27.5h18.7v6.03h-11.94v4.6h10.2v6.03h-10.2v4.83h11.94v6.03H439.53z M450.23,284.05h-3.82
			l1.89-6.95h6.49L450.23,284.05z"/>
		<path class="st36" d="M476.33,314.26l-4.87-10.24h-2.28v10.24h-6.76v-27.5h10.89c6.1,0,9.39,4.33,9.39,8.85
			c0,3.75-2.32,6.1-4.48,7.19l5.95,11.47H476.33z M473.01,292.82h-3.82v5.56h3.82c1.85,0,2.94-1.35,2.94-2.78
			S474.87,292.82,473.01,292.82z"/>
		<path class="st36" d="M502.4,314.26l-1.28-4.1h-8.46l-1.35,4.1h-7.07l10.01-27.5h5.22l10.01,27.5H502.4z M497.03,297.19
			l-2.47,7.34h4.79L497.03,297.19z"/>
		<path class="st36" d="M519.69,292.78v21.48h-6.76v-21.48h-6.76v-6.03h20.28v6.03H519.69z"/>
		<path class="st36" d="M529.41,314.26v-27.5h6.76v27.5H529.41z"/>
		<path class="st36" d="M552.47,314.26h-5.02l-9.08-27.5h6.99l4.64,15.37l4.56-15.37h7.03L552.47,314.26z"/>
		<path class="st36" d="M563.77,314.26v-27.5h18.7v6.03h-11.94v4.6h10.2v6.03h-10.2v4.83h11.94v6.03H563.77z"/>
		<path class="st36" d="M611.93,311.4c-2.01,2.01-4.33,3.09-7.69,3.09c-3.36,0-5.68-1.08-7.69-3.09c-2.9-2.9-2.78-6.76-2.78-10.89
			c0-4.13-0.12-8,2.78-10.89c2.01-2.01,4.33-3.09,7.69-3.09c3.36,0,5.68,1.08,7.69,3.09c2.9,2.9,2.78,6.76,2.78,10.89
			C614.71,304.64,614.83,308.51,611.93,311.4z M606.95,293.75c-0.5-0.66-1.47-1.2-2.7-1.2c-1.24,0-2.2,0.54-2.7,1.2
			c-0.62,0.81-1,1.74-1,6.76c0,5.02,0.39,5.91,1,6.72c0.5,0.66,1.47,1.24,2.7,1.24c1.24,0,2.2-0.58,2.7-1.24c0.62-0.81,1-1.7,1-6.72
			C607.95,295.49,607.56,294.56,606.95,293.75z"/>
		<path class="st36" d="M632.12,314.26l-4.87-10.24h-2.28v10.24h-6.76v-27.5h10.89c6.1,0,9.39,4.33,9.39,8.85
			c0,3.75-2.32,6.1-4.48,7.19l5.95,11.47H632.12z M628.8,292.82h-3.82v5.56h3.82c1.85,0,2.94-1.35,2.94-2.78
			S630.65,292.82,628.8,292.82z"/>
		<path class="st36" d="M651.58,314.49c-3.21,0-5.64-1.08-7.65-3.09c-2.9-2.9-2.78-6.76-2.78-10.89c0-4.13-0.12-8,2.78-10.89
			c2.01-2.01,4.44-3.09,7.65-3.09c5.22,0,9.43,2.9,10.43,8.96h-6.88c-0.43-1.55-1.28-2.94-3.52-2.94c-1.24,0-2.16,0.5-2.66,1.16
			c-0.62,0.81-1.04,1.78-1.04,6.8c0,5.02,0.43,5.99,1.04,6.8c0.5,0.66,1.43,1.16,2.66,1.16c2.24,0,3.09-1.39,3.52-2.94h6.88
			C661,311.6,656.79,314.49,651.58,314.49z"/>
		<path class="st36" d="M679.96,314.26l-1.28-4.1h-8.46l-1.35,4.1h-7.07l10.01-27.5h5.22l10.01,27.5H679.96z M674.59,297.19
			l-2.47,7.34h4.79L674.59,297.19z"/>
		<path class="st36" d="M701.19,314.26h-11.98v-27.5h11.4c5.72,0,8.77,3.21,8.77,7.96c0,3.13-2.16,4.87-3.01,5.45
			c1.12,0.69,3.4,2.12,3.4,5.99C709.77,311.4,706.1,314.26,701.19,314.26z M700.19,292.82h-4.21v4.48h4.21
			c1.85,0,2.43-1.16,2.43-2.24C702.62,293.98,702.04,292.82,700.19,292.82z M700.53,303.37h-4.56v4.83h4.56
			c1.85,0,2.47-1.28,2.47-2.43C703.01,304.6,702.39,303.37,700.53,303.37z"/>
	</g>
</g>
<g id="Logo_Vert_CMJN">
	<g>
		<g>
			<defs>
				<path id="SVGID_00000061460413670089643230000011641826483584944261_" d="M121.67,217.83c-12.35,29.9,1.87,64.15,31.77,76.5
					l65.32,26.99c29.9,12.35,64.15-1.87,76.5-31.77l26.69-64.6c12.35-29.9-1.87-64.15-31.76-76.5l-65.32-26.99
					c-29.9-12.35-64.15,1.87-76.5,31.77L121.67,217.83z"/>
			</defs>
			<clipPath id="SVGID_00000039817357007368140440000005577553107903568571_">
				<use xlink:href="#SVGID_00000061460413670089643230000011641826483584944261_"  style="overflow:visible;"/>
			</clipPath>
			<g style="clip-path:url(#SVGID_00000039817357007368140440000005577553107903568571_);">
				<g>
					<g>
						<path class="st39" d="M209.51,113.64c35.69,24.08,64.66,64.93,79.95,112.97c1.72,5.4,3.25,10.89,4.66,16.74
							c14.54-12.26,26.51-25.8,35.62-40.27c0.8-24.77-14.01-47.73-36.95-57.21l-68.23-28.19
							C219.7,115.67,214.66,114.32,209.51,113.64z"/>
					</g>
				</g>
				<g>
					<g>
						<path class="st39" d="M201.89,113.19c-24.31,0-46.02,14.52-55.3,36.98L118.4,218.4c-2.01,4.86-3.36,9.9-4.04,15.05
							c24.08-35.69,64.93-64.66,112.97-79.95c5.4-1.72,10.9-3.25,16.76-4.67c-12.27-14.54-25.82-26.51-40.3-35.61
							C203.16,113.2,202.52,113.19,201.89,113.19z"/>
					</g>
				</g>
				<g>
					<g>
						<path class="st39" d="M113.97,239.1c-0.8,24.77,14.01,47.73,36.95,57.21l68.23,28.19c4.86,2.01,9.91,3.36,15.06,4.04
							c-35.69-24.08-64.66-64.93-79.95-112.97c-1.72-5.4-3.25-10.89-4.66-16.74C135.06,211.08,123.08,224.62,113.97,239.1z"/>
					</g>
				</g>
				<g>
					<g>
						<path class="st39" d="M239.91,328.96c25.02,0.88,47.68-13.9,57.21-36.95l28.19-68.23c2.01-4.86,3.36-9.9,4.04-15.05
							c-24.08,35.69-64.93,64.66-112.97,79.95c-5.4,1.72-10.9,3.25-16.76,4.67C211.89,307.89,225.43,319.86,239.91,328.96z"/>
					</g>
				</g>
			</g>
		</g>
		<g>
			<defs>
				<path id="SVGID_00000095310503515943464500000004991480486190939270_" d="M178.4,219.85c-5.35,12.96,0.81,27.81,13.77,33.16
					l28.32,11.7c12.96,5.35,27.81-0.81,33.16-13.77l11.57-28c5.36-12.96-0.81-27.81-13.77-33.16l-28.32-11.7
					c-12.96-5.36-27.81,0.81-33.16,13.77L178.4,219.85z"/>
			</defs>
			<clipPath id="SVGID_00000054225530599699492860000009647327602294227078_">
				<use xlink:href="#SVGID_00000095310503515943464500000004991480486190939270_"  style="overflow:visible;"/>
			</clipPath>
			<g style="clip-path:url(#SVGID_00000054225530599699492860000009647327602294227078_);">
				<g>
					<g>
						<path class="st39" d="M216.48,174.68c15.47,10.44,28.03,28.15,34.66,48.97c0.74,2.34,1.41,4.72,2.02,7.26
							c6.3-5.31,11.49-11.18,15.44-17.46c0.35-10.74-6.08-20.69-16.02-24.8L223,176.43C220.9,175.56,218.71,174.98,216.48,174.68z"
							/>
					</g>
				</g>
				<g>
					<g>
						<path class="st39" d="M213.17,174.48c-10.54,0-19.95,6.29-23.97,16.03l-12.22,29.58c-0.87,2.11-1.46,4.29-1.75,6.53
							c10.44-15.47,28.15-28.03,48.97-34.66c2.34-0.75,4.73-1.41,7.27-2.02c-5.32-6.3-11.19-11.49-17.47-15.44
							C213.73,174.49,213.45,174.48,213.17,174.48z"/>
					</g>
				</g>
				<g>
					<g>
						<path class="st39" d="M175.07,229.07c-0.35,10.74,6.07,20.69,16.02,24.8l29.58,12.22c2.11,0.87,4.3,1.46,6.53,1.75
							c-15.47-10.44-28.03-28.15-34.66-48.97c-0.74-2.34-1.41-4.72-2.02-7.26C184.21,216.92,179.01,222.79,175.07,229.07z"/>
					</g>
				</g>
				<g>
					<g>
						<path class="st39" d="M229.66,268.02c10.85,0.38,20.67-6.02,24.8-16.02l12.22-29.58c0.87-2.11,1.46-4.29,1.75-6.52
							c-10.44,15.47-28.15,28.03-48.97,34.66c-2.34,0.74-4.73,1.41-7.27,2.02C217.51,258.89,223.38,264.08,229.66,268.02z"/>
					</g>
				</g>
			</g>
		</g>
	</g>
	<g class="st0">
		<path class="st41" d="M421.03,143.77h-25.9l-49.75,117.2h27.26l12.4-30.46h45.77l12.73,30.46h28.3L421.03,143.77z M394.61,207.03
			l13.01-31.96l13.39,31.96H394.61z"/>
		<path class="st41" d="M504.97,260.97h-26.75V143.2h55.35c30.45,0,49.29,13.46,49.29,37.52v6.06c0,15.14-9.76,27.59-27.93,32.3
			l32.81,41.89h-34.15l-31.97-41.89v-17.5h11.95c14.64,0,22.54-5.22,22.54-16.66v-2.19c0-11.44-7.91-16.32-22.54-16.32h-28.6V260.97
			z"/>
		<path class="st41" d="M595.81,143.2h54.01c30.79,0,47.44,11.44,47.44,33.14v3.87c0,6.56-4.88,16.32-14.64,20.86
			c9.93,3.03,17.83,12.11,17.83,22.71v5.89c0,18.17-14.3,31.29-45.26,31.29h-59.39V143.2z M654.86,192.16
			c9.42,0,15.48-3.87,15.48-12.45v-1.35c0-9.09-6.23-12.28-20.02-12.28h-27.76v26.08H654.86z M654.69,238.26
			c13.29,0,19.01-4.21,19.01-10.26v-3.87c0-6.73-5.89-10.94-16.82-10.94h-34.32v25.07H654.69z"/>
		<path class="st41" d="M775.05,143.77h-25.9l-49.75,117.2h27.26l12.4-30.46h45.77l12.73,30.46h28.3L775.05,143.77z M748.63,207.03
			l13.01-31.96l13.39,31.96H748.63z"/>
	</g>
	<g class="st0">
		<path class="st41" d="M356.18,314.49c-3.21,0-5.64-1.08-7.65-3.09c-2.9-2.9-2.78-6.76-2.78-10.89c0-4.13-0.12-8,2.78-10.89
			c2.01-2.01,4.44-3.09,7.65-3.09c5.22,0,9.43,2.9,10.43,8.96h-6.88c-0.43-1.55-1.28-2.94-3.52-2.94c-1.24,0-2.16,0.5-2.66,1.16
			c-0.62,0.81-1.04,1.78-1.04,6.8c0,5.02,0.43,5.99,1.04,6.8c0.5,0.66,1.43,1.16,2.66,1.16c2.24,0,3.09-1.39,3.52-2.94h6.88
			C365.6,311.6,361.39,314.49,356.18,314.49z"/>
		<path class="st41" d="M386.84,311.4c-2.01,2.01-4.33,3.09-7.69,3.09c-3.36,0-5.68-1.08-7.69-3.09c-2.9-2.9-2.78-6.76-2.78-10.89
			c0-4.13-0.12-8,2.78-10.89c2.01-2.01,4.33-3.09,7.69-3.09c3.36,0,5.68,1.08,7.69,3.09c2.9,2.9,2.78,6.76,2.78,10.89
			C389.62,304.64,389.74,308.51,386.84,311.4z M381.85,293.75c-0.5-0.66-1.47-1.2-2.7-1.2s-2.2,0.54-2.7,1.2
			c-0.62,0.81-1,1.74-1,6.76c0,5.02,0.39,5.91,1,6.72c0.5,0.66,1.47,1.24,2.7,1.24s2.2-0.58,2.7-1.24c0.62-0.81,1-1.7,1-6.72
			C382.86,295.49,382.47,294.56,381.85,293.75z"/>
		<path class="st41" d="M410.58,311.4c-2.01,2.01-4.33,3.09-7.69,3.09c-3.36,0-5.68-1.08-7.69-3.09c-2.9-2.9-2.78-6.76-2.78-10.89
			c0-4.13-0.12-8,2.78-10.89c2.01-2.01,4.33-3.09,7.69-3.09c3.36,0,5.68,1.08,7.69,3.09c2.9,2.9,2.78,6.76,2.78,10.89
			C413.36,304.64,413.48,308.51,410.58,311.4z M405.6,293.75c-0.5-0.66-1.47-1.2-2.7-1.2s-2.2,0.54-2.7,1.2
			c-0.62,0.81-1,1.74-1,6.76c0,5.02,0.39,5.91,1,6.72c0.5,0.66,1.47,1.24,2.7,1.24s2.2-0.58,2.7-1.24c0.62-0.81,1-1.7,1-6.72
			C406.6,295.49,406.22,294.56,405.6,293.75z"/>
		<path class="st41" d="M427.76,304.45h-4.13v9.81h-6.76v-27.5h10.89c6.1,0,9.39,4.33,9.39,8.85
			C437.15,300.12,433.86,304.45,427.76,304.45z M427.45,292.82h-3.82v5.56h3.82c1.85,0,2.94-1.35,2.94-2.78
			S429.31,292.82,427.45,292.82z"/>
		<path class="st41" d="M439.53,314.26v-27.5h18.7v6.03h-11.94v4.6h10.2v6.03h-10.2v4.83h11.94v6.03H439.53z M450.23,284.05h-3.82
			l1.89-6.95h6.49L450.23,284.05z"/>
		<path class="st41" d="M476.33,314.26l-4.87-10.24h-2.28v10.24h-6.76v-27.5h10.89c6.1,0,9.39,4.33,9.39,8.85
			c0,3.75-2.32,6.1-4.48,7.19l5.95,11.47H476.33z M473.01,292.82h-3.82v5.56h3.82c1.85,0,2.94-1.35,2.94-2.78
			S474.87,292.82,473.01,292.82z"/>
		<path class="st41" d="M502.4,314.26l-1.28-4.1h-8.46l-1.35,4.1h-7.07l10.01-27.5h5.22l10.01,27.5H502.4z M497.03,297.19
			l-2.47,7.34h4.79L497.03,297.19z"/>
		<path class="st41" d="M519.69,292.78v21.48h-6.76v-21.48h-6.76v-6.03h20.28v6.03H519.69z"/>
		<path class="st41" d="M529.41,314.26v-27.5h6.76v27.5H529.41z"/>
		<path class="st41" d="M552.47,314.26h-5.02l-9.08-27.5h6.99l4.64,15.37l4.56-15.37h7.03L552.47,314.26z"/>
		<path class="st41" d="M563.77,314.26v-27.5h18.7v6.03h-11.94v4.6h10.2v6.03h-10.2v4.83h11.94v6.03H563.77z"/>
		<path class="st41" d="M611.93,311.4c-2.01,2.01-4.33,3.09-7.69,3.09c-3.36,0-5.68-1.08-7.69-3.09c-2.9-2.9-2.78-6.76-2.78-10.89
			c0-4.13-0.12-8,2.78-10.89c2.01-2.01,4.33-3.09,7.69-3.09c3.36,0,5.68,1.08,7.69,3.09c2.9,2.9,2.78,6.76,2.78,10.89
			C614.71,304.64,614.83,308.51,611.93,311.4z M606.95,293.75c-0.5-0.66-1.47-1.2-2.7-1.2c-1.24,0-2.2,0.54-2.7,1.2
			c-0.62,0.81-1,1.74-1,6.76c0,5.02,0.39,5.91,1,6.72c0.5,0.66,1.47,1.24,2.7,1.24c1.24,0,2.2-0.58,2.7-1.24c0.62-0.81,1-1.7,1-6.72
			C607.95,295.49,607.56,294.56,606.95,293.75z"/>
		<path class="st41" d="M632.12,314.26l-4.87-10.24h-2.28v10.24h-6.76v-27.5h10.89c6.1,0,9.39,4.33,9.39,8.85
			c0,3.75-2.32,6.1-4.48,7.19l5.95,11.47H632.12z M628.8,292.82h-3.82v5.56h3.82c1.85,0,2.94-1.35,2.94-2.78
			S630.65,292.82,628.8,292.82z"/>
		<path class="st41" d="M651.58,314.49c-3.21,0-5.64-1.08-7.65-3.09c-2.9-2.9-2.78-6.76-2.78-10.89c0-4.13-0.12-8,2.78-10.89
			c2.01-2.01,4.44-3.09,7.65-3.09c5.22,0,9.43,2.9,10.43,8.96h-6.88c-0.43-1.55-1.28-2.94-3.52-2.94c-1.24,0-2.16,0.5-2.66,1.16
			c-0.62,0.81-1.04,1.78-1.04,6.8c0,5.02,0.43,5.99,1.04,6.8c0.5,0.66,1.43,1.16,2.66,1.16c2.24,0,3.09-1.39,3.52-2.94h6.88
			C661,311.6,656.79,314.49,651.58,314.49z"/>
		<path class="st41" d="M679.96,314.26l-1.28-4.1h-8.46l-1.35,4.1h-7.07l10.01-27.5h5.22l10.01,27.5H679.96z M674.59,297.19
			l-2.47,7.34h4.79L674.59,297.19z"/>
		<path class="st41" d="M701.19,314.26h-11.98v-27.5h11.4c5.72,0,8.77,3.21,8.77,7.96c0,3.13-2.16,4.87-3.01,5.45
			c1.12,0.69,3.4,2.12,3.4,5.99C709.77,311.4,706.1,314.26,701.19,314.26z M700.19,292.82h-4.21v4.48h4.21
			c1.85,0,2.43-1.16,2.43-2.24C702.62,293.98,702.04,292.82,700.19,292.82z M700.53,303.37h-4.56v4.83h4.56
			c1.85,0,2.47-1.28,2.47-2.43C703.01,304.6,702.39,303.37,700.53,303.37z"/>
	</g>
</g>
</svg>
